<svg xmlns="http://www.w3.org/2000/svg" width="819.609" height="444.811"><style>.st0{fill:#333}.st2{fill:#fff}.st3{fill:#faa31b}.st4{fill:none}</style><g id="Layer_2"><path class="st0" d="M495.571 419.662v-8.682c0-7.318 5.023-12.374 11.576-12.374h.066c6.553 0 11.643 5.056 11.643 12.374v8.682h-23.285zm3.726-4.091h15.834v-4.591c0-4.89-3.293-8.083-7.851-8.083h-.066c-4.557 0-7.917 3.193-7.917 8.083v4.591zM495.405 387.025v-3.792l23.451-10.246v4.325l-5.622 2.361v11.011l5.622 2.395v4.191l-23.451-10.245zm14.204-5.854l-9.314 4.024 9.314 3.992v-8.016zM499.363 366.264v7.385h-3.792v-18.895h3.792v7.385h19.493v4.125h-19.493zM495.405 345.171v-3.792l23.451-10.245v4.324l-5.622 2.361v11.011l5.622 2.395v4.191l-23.451-10.245zm14.204-5.855l-9.314 4.024 9.314 3.992v-8.016zM495.571 319.151v-4.523l17.896-7.02-17.896-6.985v-4.424l23.451 9.646v3.626l-23.451 9.68zM495.571 291.97v-4.092h23.285v4.092h-23.285zM495.571 281.656v-10.378c0-2.928.865-5.223 2.329-6.72 1.264-1.23 2.993-1.929 5.022-1.929h.066c3.825 0 6.121 2.295 7.052 5.521l8.815-6.287v4.856l-8.116 5.722v5.123h8.116v4.091h-23.284zm11.543-10.079c0-2.927-1.53-4.79-3.892-4.79h-.067c-2.494 0-3.858 1.797-3.858 4.823v5.955h7.817v-5.988zM499.363 251.98v7.384h-3.792V240.47h3.792v7.385h19.493v4.125h-19.493zM508.977 236.508h-13.405v-4.092h13.239c4.324 0 6.62-2.229 6.62-5.888 0-3.625-2.162-5.854-6.454-5.854h-13.405v-4.091h13.206c6.952 0 10.445 3.925 10.445 10.012 0 6.054-3.494 9.913-10.246 9.913zM495.405 203.539v-3.792l23.451-10.246v4.325l-5.622 2.361v11.011l5.622 2.395v4.191l-23.451-10.245zm14.204-5.855l-9.314 4.024 9.314 3.992v-8.016zM495.571 185.504v-4.091h19.56v-12.241h3.726v16.332h-23.286zM495.571 164.678v-4.092h23.285v4.092h-23.285zM515.829 155.195l-16.632-13.738v13.306h-3.626v-18.661h3.027l16.632 13.771v-13.771h3.626v19.094h-3.027zM495.405 122.759v-3.792l23.451-10.245v4.324l-5.622 2.361v11.011l5.622 2.395v4.191l-23.451-10.245zm14.204-5.855l-9.314 4.024 9.314 3.992v-8.016zM499.363 101.997v7.385h-3.792V90.487h3.792v7.385h19.493v4.125h-19.493zM495.571 85.926v-4.092h23.285v4.092h-23.285zM507.28 76.644h-.066c-6.553 0-12.041-5.056-12.041-12.208s5.422-12.142 11.975-12.142h.066c6.553 0 12.042 5.056 12.042 12.208s-5.422 12.142-11.976 12.142zm0-20.059h-.066c-4.523 0-8.282 3.293-8.282 7.917s3.692 7.85 8.216 7.85h.066c4.524 0 8.25-3.293 8.25-7.917 0-4.623-3.659-7.85-8.184-7.85zM495.571 47.333v-3.792l16.1-12.474h-16.1v-4.025h23.285v3.426l-16.565 12.84h16.565v4.025h-23.285z"/><g><path class="st0" d="M173.167 210.771c-10.483 0-21.096-2.245-21.096-6.537s10.613-6.537 21.096-6.537 21.096 2.245 21.096 6.537-10.613 6.537-21.096 6.537zm0-11.074c-11.657 0-19.096 2.688-19.096 4.537s7.439 4.537 19.096 4.537 19.096-2.688 19.096-4.537-7.439-4.537-19.096-4.537zM173.167 220.887c-10.483 0-21.096-2.245-21.096-6.537h2c0 1.85 7.439 4.537 19.096 4.537s19.096-2.688 19.096-4.537h2c0 4.292-10.613 6.537-21.096 6.537zM173.167 231.004c-10.483 0-21.096-2.245-21.096-6.536h2c0 1.85 7.439 4.536 19.096 4.536s19.096-2.687 19.096-4.536h2c0 4.291-10.613 6.536-21.096 6.536zM173.167 241.12c-10.483 0-21.096-2.245-21.096-6.536h2c0 1.85 7.439 4.536 19.096 4.536s19.096-2.687 19.096-4.536h2c0 4.291-10.613 6.536-21.096 6.536z"/><path class="st0" d="M152.088 204.337h2v30.794h-2zM192.229 204.337h2v30.794h-2z"/><g><path class="st0" d="M144.584 359.972l-2.926 4.102 3.046 4.294h-1.739l-2.219-3.202-2.207 3.202h-1.691l3.034-4.27-2.914-4.126h1.739l2.087 3.047 2.099-3.047h1.691zM146.977 359.972h1.571l2.554 3.97 2.555-3.97h1.571v8.396h-1.475v-6.021l-2.651 3.958h-.048l-2.626-3.935v5.997h-1.451v-8.395zM158.136 359.972h1.475v7.053h4.414v1.343h-5.889v-8.396zM170.652 359.972h3.13c2.639 0 4.461 1.812 4.461 4.174v.024c0 2.362-1.823 4.197-4.461 4.197h-3.13v-8.395zm1.475 1.344v5.709h1.655c1.763 0 2.914-1.188 2.914-2.831v-.023c0-1.644-1.151-2.854-2.914-2.854h-1.655zM180.408 364.194v-.023c0-2.363 1.823-4.342 4.401-4.342s4.378 1.955 4.378 4.317v.024c0 2.362-1.823 4.341-4.402 4.341s-4.377-1.954-4.377-4.317zm7.232 0v-.023c0-1.632-1.188-2.986-2.854-2.986s-2.831 1.331-2.831 2.962v.024c0 1.631 1.188 2.974 2.854 2.974s2.831-1.32 2.831-2.951zM191.352 364.194v-.023c0-2.387 1.787-4.342 4.33-4.342 1.547 0 2.482.539 3.286 1.307l-.947 1.092c-.672-.624-1.392-1.043-2.351-1.043-1.595 0-2.771 1.318-2.771 2.962v.024c0 1.643 1.163 2.974 2.771 2.974 1.031 0 1.691-.407 2.411-1.079l.947.96c-.875.911-1.835 1.486-3.406 1.486-2.447 0-4.27-1.907-4.27-4.318zM200.76 367.144l.888-1.055c.804.695 1.619 1.091 2.65 1.091.912 0 1.487-.432 1.487-1.056v-.023c0-.6-.336-.924-1.895-1.283-1.787-.432-2.795-.96-2.795-2.507v-.024c0-1.438 1.199-2.435 2.867-2.435 1.223 0 2.195.372 3.046 1.056l-.792 1.115c-.755-.563-1.511-.863-2.278-.863-.864 0-1.367.443-1.367.995v.024c0 .647.384.936 2.003 1.319 1.775.432 2.687 1.067 2.687 2.458v.024c0 1.571-1.235 2.507-2.999 2.507a5.165 5.165 0 0 1-3.502-1.343z"/></g><g><path class="st0" d="M149.977 253.051h3.742c1.056 0 1.883.312 2.423.84.444.455.696 1.079.696 1.811v.024c0 1.379-.828 2.207-1.991 2.542l2.267 3.179h-1.751l-2.063-2.927h-1.847v2.927h-1.475v-8.396zm3.634 4.162c1.055 0 1.727-.552 1.727-1.403v-.024c0-.899-.647-1.391-1.739-1.391h-2.147v2.818h2.159zM159.397 253.051h3.13c2.639 0 4.461 1.812 4.461 4.174v.024c0 2.362-1.823 4.197-4.461 4.197h-3.13v-8.395zm1.475 1.343v5.709h1.655c1.763 0 2.914-1.188 2.914-2.831v-.023c0-1.644-1.151-2.854-2.914-2.854h-1.655zM169.525 253.051h3.766c.959 0 1.715.264 2.194.744.372.371.564.827.564 1.391v.024c0 1.007-.576 1.547-1.199 1.871.983.335 1.667.899 1.667 2.038v.024c0 1.499-1.235 2.303-3.106 2.303h-3.886v-8.395zm5.049 2.375c0-.66-.528-1.067-1.475-1.067h-2.123v2.23h2.015c.947 0 1.583-.372 1.583-1.14v-.023zm-1.259 2.41h-2.339v2.303h2.447c1.007 0 1.619-.396 1.619-1.151v-.023c0-.709-.563-1.129-1.727-1.129zM178.933 253.051h1.571l2.555 3.97 2.555-3.97h1.571v8.395h-1.476v-6.02l-2.65 3.958h-.048l-2.627-3.935v5.997h-1.451v-8.395zM189.529 260.222l.888-1.055c.803.695 1.619 1.091 2.65 1.091.911 0 1.487-.432 1.487-1.056v-.023c0-.6-.336-.924-1.896-1.283-1.787-.432-2.794-.96-2.794-2.507v-.024c0-1.438 1.199-2.435 2.866-2.435 1.223 0 2.195.372 3.046 1.056l-.792 1.115c-.756-.563-1.511-.863-2.279-.863-.864 0-1.368.443-1.368.995v.024c0 .647.384.936 2.003 1.319 1.775.432 2.687 1.067 2.687 2.458v.024c0 1.571-1.235 2.507-2.998 2.507a5.164 5.164 0 0 1-3.5-1.343z"/></g><g><path class="st0" d="M174.401 323.285h-15.698a1 1 0 1 1 0-2h15.698a1 1 0 1 1 0 2zM174.204 326.586h-15.501a1 1 0 1 1 0-2h15.501a1 1 0 1 1 0 2zM174.401 330.27h-15.698a1 1 0 1 1 0-2h15.698a1 1 0 1 1 0 2zM174.204 333.955h-15.501a1 1 0 1 1 0-2h15.501a1 1 0 1 1 0 2zM174.401 337.638h-15.698a1 1 0 1 1 0-2h15.698a1 1 0 1 1 0 2z"/><path class="st0" d="M183.492 345.73H153.35a1 1 0 0 1-1-1v-36.192a1 1 0 0 1 1-1h22.923a1 1 0 0 1 1 1v6.235h6.219a1 1 0 0 1 1 1v28.957a1 1 0 0 1-1 1zm-29.142-2h28.142v-26.957h-6.219a1 1 0 0 1-1-1v-6.235H154.35v34.192z"/><path class="st0" d="M183.492 316.773a1 1 0 0 1-.706-.292l-7.047-7.023a1 1 0 1 1 1.413-1.416l7.047 7.023a1 1 0 0 1-.707 1.708z"/><path class="st0" d="M187.732 341.546h-3.61v-2h2.61v-27.544l-6.634-6.648H158.59v3.749h-2v-4.749a1 1 0 0 1 1-1h22.923c.266 0 .52.105.708.294l7.219 7.234a1 1 0 0 1 .292.706v28.958a1 1 0 0 1-1 1z"/><path class="st0" d="M191.723 337.624h-3.61v-2h2.61V308.08l-6.635-6.648h-21.507v2.922h-2v-3.922a1 1 0 0 1 1-1h22.922c.266 0 .52.105.708.294l7.22 7.234a1 1 0 0 1 .292.706v28.958a1 1 0 0 1-1 1z"/></g><g><path class="st0" d="M146.724 137.571h6.225v1.319H148.2v2.183h4.209v1.319H148.2v2.255h4.81v1.319h-6.285v-8.395zM162.608 137.571l-2.926 4.102 3.046 4.294h-1.739l-2.219-3.202-2.207 3.202h-1.691l3.034-4.27-2.914-4.126h1.739l2.087 3.047 2.099-3.047h1.691zM164.028 141.793v-.023c0-2.387 1.787-4.342 4.33-4.342 1.547 0 2.482.539 3.286 1.307l-.948 1.092c-.671-.624-1.391-1.043-2.351-1.043-1.595 0-2.771 1.318-2.771 2.962v.024c0 1.643 1.164 2.974 2.771 2.974 1.031 0 1.691-.407 2.411-1.079l.948.96c-.876.911-1.835 1.486-3.406 1.486-2.447-.001-4.27-1.907-4.27-4.318zM174 137.571h6.225v1.319h-4.75v2.183h4.209v1.319h-4.209v2.255h4.809v1.319H174v-8.395zM182.784 137.571h1.475v7.053h4.414v1.343h-5.889v-8.396zM200.001 144.995c-.72.672-1.559 1.092-2.566 1.092-1.571 0-2.747-.947-2.747-2.398v-.024c0-1.079.636-1.859 1.787-2.351-.48-.611-.696-1.14-.696-1.751v-.024c0-1.127.912-2.11 2.411-2.11 1.332 0 2.231.899 2.231 2.026v.024c0 1.104-.731 1.763-1.847 2.183l1.439 1.463c.324-.479.624-1.031.9-1.619l1.115.588c-.335.672-.708 1.331-1.139 1.907l1.331 1.343-1.104.792-1.115-1.141zm-.839-.863l-1.871-1.907c-.78.336-1.116.852-1.116 1.392v.023c0 .708.588 1.224 1.403 1.224.576-.001 1.104-.276 1.584-.732zm-.049-4.57v-.024c0-.563-.396-.947-.947-.947-.6 0-1.007.42-1.007 1.008v.023c0 .42.167.731.635 1.247.864-.312 1.319-.707 1.319-1.307zM139.062 151.971h6.249v1.344h-4.773v2.29h4.234v1.344h-4.234v3.418h-1.475v-8.396zM147.678 151.971h1.476v7.053h4.414v1.343h-5.889v-8.396zM158.824 151.912h1.367l3.694 8.455h-1.56l-.852-2.027h-3.97l-.863 2.027h-1.511l3.695-8.455zm2.111 5.121l-1.451-3.358-1.439 3.358h2.89zM167.057 153.339h-2.663v-1.367h6.812v1.367h-2.662v7.028h-1.487v-7.028zM177.857 151.971h6.249v1.344h-4.773v2.29h4.233v1.344h-4.233v3.418h-1.476v-8.396zM186.558 151.971h1.475v8.396h-1.475v-8.396zM191.021 151.971h1.475v7.053h4.414v1.343h-5.889v-8.396zM199.193 151.971h6.225v1.319h-4.75v2.183h4.209v1.319h-4.209v2.255h4.809v1.319h-6.284v-8.395zM207.413 159.143l.888-1.055c.804.695 1.619 1.091 2.65 1.091.912 0 1.487-.432 1.487-1.056v-.023c0-.6-.336-.924-1.895-1.283-1.787-.432-2.795-.96-2.795-2.507v-.024c0-1.438 1.199-2.435 2.867-2.435 1.223 0 2.195.372 3.046 1.056l-.792 1.115c-.755-.563-1.511-.863-2.278-.863-.864 0-1.367.443-1.367.995v.024c0 .647.384.936 2.003 1.319 1.775.432 2.687 1.067 2.687 2.458v.024c0 1.571-1.235 2.507-2.999 2.507a5.165 5.165 0 0 1-3.502-1.343z"/></g><g><path class="st0" d="M178.517 98.884h-15.698a1 1 0 0 1 0-2h15.698a1 1 0 0 1 0 2zM178.319 102.184h-15.5a1 1 0 1 1 0-2h15.5a1 1 0 1 1 0 2zM178.517 105.869h-15.698a1 1 0 1 1 0-2h15.698a1 1 0 1 1 0 2zM178.319 109.553h-15.5a1 1 0 1 1 0-2h15.5a1 1 0 1 1 0 2zM178.517 113.237h-15.698a1 1 0 1 1 0-2h15.698a1 1 0 1 1 0 2z"/><path class="st0" d="M187.607 121.329h-30.142a1 1 0 0 1-1-1V84.137a1 1 0 0 1 1-1h22.923a1 1 0 0 1 1 1v6.235h6.219a.997.997 0 0 1 1 1v28.958a.999.999 0 0 1-1 .999zm-29.142-2h28.142V92.371h-6.219a.997.997 0 0 1-1-1v-6.235h-20.923v34.193z"/><path class="st0" d="M187.607 92.371a.996.996 0 0 1-.706-.292l-7.047-7.023a1.001 1.001 0 0 1 1.413-1.417l7.047 7.023a1.001 1.001 0 0 1-.707 1.709z"/><path class="st0" d="M191.848 117.143h-3.61v-2h2.61V87.6l-6.634-6.648h-21.508v3.749h-2v-4.749a1 1 0 0 1 1-1h22.923a1 1 0 0 1 .708.293l7.219 7.234c.187.188.292.442.292.707v28.957a1 1 0 0 1-1 1z"/><path class="st0" d="M195.839 113.221h-3.61v-2h2.61V83.679l-6.634-6.648h-21.508v2.922h-2V76.03a1 1 0 0 1 1-1h22.923c.266 0 .521.105.708.293l7.219 7.235c.187.188.292.442.292.707v28.957a1 1 0 0 1-1 .999z"/></g></g><g><path class="st0" d="M32.942 308.207h3.13c2.639 0 4.461 1.812 4.461 4.174v.024c0 2.362-1.823 4.197-4.461 4.197h-3.13v-8.395zm1.475 1.344v5.709h1.655c1.763 0 2.914-1.188 2.914-2.831v-.023c0-1.644-1.151-2.854-2.914-2.854h-1.655zM45.456 308.147h1.368l3.694 8.455h-1.559l-.852-2.027h-3.97l-.864 2.027h-1.511l3.694-8.455zm2.111 5.121l-1.451-3.358-1.439 3.358h2.89zM53.689 309.574h-2.663v-1.367h6.812v1.367h-2.663v7.028h-1.487v-7.028zM62.04 308.147h1.368l3.694 8.455h-1.559l-.852-2.027h-3.97l-.864 2.027h-1.511l3.694-8.455zm2.111 5.121L62.7 309.91l-1.439 3.358h2.89zM73.634 308.207h1.475v7.053h4.414v1.343h-5.889v-8.396zM84.78 308.147h1.367l3.694 8.455h-1.559l-.852-2.027h-3.97l-.863 2.027h-1.511l3.694-8.455zm2.111 5.121l-1.451-3.358-1.44 3.358h2.891zM92.029 308.207h1.476v4.222l3.993-4.222h1.823l-3.502 3.61 3.658 4.785h-1.799l-2.867-3.778-1.307 1.344v2.435h-1.476v-8.396zM101.485 308.207h6.225v1.319h-4.749v2.183h4.209v1.319h-4.209v2.255h4.809v1.319h-6.285v-8.395zM109.706 315.379l.888-1.055c.803.695 1.619 1.091 2.65 1.091.912 0 1.487-.432 1.487-1.056v-.023c0-.6-.336-.924-1.895-1.283-1.787-.432-2.794-.96-2.794-2.507v-.024c0-1.438 1.199-2.435 2.867-2.435 1.223 0 2.194.372 3.046 1.056l-.792 1.115c-.755-.563-1.511-.863-2.279-.863-.863 0-1.367.443-1.367.995v.024c0 .647.384.936 2.003 1.319 1.775.432 2.687 1.067 2.687 2.458v.024c0 1.571-1.235 2.507-2.998 2.507a5.172 5.172 0 0 1-3.503-1.343z"/><g><path class="st0" d="M57.644 411.687h3.13c2.638 0 4.461 1.812 4.461 4.174v.024c0 2.362-1.823 4.197-4.461 4.197h-3.13v-8.395zm1.475 1.344v5.709h1.655c1.763 0 2.915-1.188 2.915-2.831v-.023c0-1.644-1.151-2.854-2.915-2.854h-1.655zM70.158 411.628h1.367l3.694 8.455H73.66l-.852-2.027h-3.97l-.864 2.027h-1.511l3.695-8.455zm2.111 5.121l-1.451-3.358-1.439 3.358h2.89zM78.391 413.054h-2.663v-1.367h6.812v1.367h-2.662v7.028h-1.487v-7.028zM86.742 411.628h1.367l3.694 8.455h-1.559l-.852-2.027h-3.97l-.864 2.027h-1.511l3.695-8.455zm2.111 5.121l-1.451-3.358-1.439 3.358h2.89zM26.294 426.088h1.595l2.003 6.225 2.062-6.248h1.248l2.063 6.248 2.003-6.225h1.547l-2.914 8.455h-1.284l-2.063-6.032-2.062 6.032h-1.271l-2.927-8.455zM42.972 426.028h1.367l3.694 8.455h-1.559l-.852-2.027h-3.97l-.863 2.027h-1.511l3.694-8.455zm2.111 5.121l-1.451-3.358-1.439 3.358h2.89zM50.222 426.088h3.742c1.056 0 1.883.312 2.423.84.443.455.695 1.079.695 1.811v.024c0 1.379-.827 2.207-1.991 2.542l2.267 3.179h-1.751l-2.063-2.927h-1.847v2.927h-1.476v-8.396zm3.634 4.162c1.055 0 1.727-.552 1.727-1.403v-.024c0-.899-.647-1.391-1.739-1.391h-2.146v2.818h2.158zM59.642 426.088h6.225v1.319h-4.749v2.183h4.209v1.319h-4.209v2.255h4.81v1.319h-6.285v-8.395zM68.426 426.088h1.476v3.49h4.005v-3.49h1.475v8.396h-1.475v-3.538h-4.005v3.538h-1.476v-8.396zM77.918 430.309v-.023c0-2.363 1.823-4.342 4.401-4.342s4.378 1.955 4.378 4.317v.024c0 2.362-1.823 4.341-4.402 4.341s-4.377-1.953-4.377-4.317zm7.232 0v-.023c0-1.632-1.188-2.986-2.854-2.986s-2.831 1.331-2.831 2.962v.024c0 1.631 1.188 2.974 2.854 2.974s2.831-1.32 2.831-2.951zM89.102 430.921v-4.833h1.476v4.773c0 1.56.804 2.387 2.123 2.387 1.307 0 2.111-.779 2.111-2.327v-4.833h1.476v4.762c0 2.507-1.416 3.766-3.61 3.766-2.185-.001-3.576-1.26-3.576-3.695zM98.498 433.26l.888-1.055c.803.695 1.619 1.091 2.65 1.091.912 0 1.487-.432 1.487-1.056v-.023c0-.6-.336-.924-1.895-1.283-1.787-.432-2.794-.96-2.794-2.507v-.024c0-1.438 1.199-2.435 2.867-2.435 1.223 0 2.194.372 3.046 1.056l-.792 1.115c-.755-.563-1.511-.863-2.279-.863-.863 0-1.367.443-1.367.995v.024c0 .647.384.936 2.003 1.319 1.775.432 2.687 1.067 2.687 2.458v.024c0 1.571-1.235 2.507-2.998 2.507a5.172 5.172 0 0 1-3.503-1.343zM107.485 426.088h6.225v1.319h-4.749v2.183h4.209v1.319h-4.209v2.255h4.809v1.319h-6.285v-8.395zM115.706 433.26l.888-1.055c.803.695 1.619 1.091 2.65 1.091.912 0 1.487-.432 1.487-1.056v-.023c0-.6-.336-.924-1.895-1.283-1.787-.432-2.794-.96-2.794-2.507v-.024c0-1.438 1.199-2.435 2.867-2.435 1.223 0 2.194.372 3.046 1.056l-.792 1.115c-.755-.563-1.511-.863-2.279-.863-.863 0-1.367.443-1.367.995v.024c0 .647.384.936 2.003 1.319 1.775.432 2.687 1.067 2.687 2.458v.024c0 1.571-1.235 2.507-2.998 2.507a5.172 5.172 0 0 1-3.503-1.343z"/></g><g><path class="st0" d="M16.549 71.021h3.311c1.967 0 3.19 1.115 3.19 2.807v.023c0 1.884-1.511 2.867-3.358 2.867h-1.667v2.698h-1.476v-8.395zm3.19 4.365c1.115 0 1.811-.623 1.811-1.499v-.023c0-.983-.707-1.499-1.811-1.499h-1.715v3.021h1.715zM27.443 70.961h1.367l3.694 8.455h-1.56l-.852-2.027h-3.97l-.863 2.027H23.75l3.693-8.455zm2.111 5.121l-1.451-3.358-1.439 3.358h2.89zM33.793 75.242v-.023c0-2.387 1.787-4.342 4.33-4.342 1.547 0 2.482.539 3.286 1.307l-.947 1.092c-.672-.624-1.392-1.043-2.351-1.043-1.595 0-2.771 1.318-2.771 2.962v.024c0 1.643 1.164 2.974 2.771 2.974 1.032 0 1.691-.407 2.411-1.079l.947.96c-.875.911-1.835 1.486-3.406 1.486-2.447 0-4.27-1.906-4.27-4.318zM43.765 71.021h1.476v4.222l3.994-4.222h1.823l-3.502 3.61 3.658 4.785h-1.799l-2.867-3.778-1.307 1.344v2.435h-1.476v-8.396zM56.027 70.961h1.367l3.694 8.455h-1.56l-.852-2.027h-3.97l-.863 2.027h-1.511l3.695-8.455zm2.111 5.121l-1.451-3.358-1.439 3.358h2.89zM62.377 75.242v-.023c0-2.352 1.799-4.342 4.33-4.342 1.463 0 2.362.407 3.226 1.139l-.936 1.116c-.647-.552-1.283-.899-2.351-.899-1.547 0-2.723 1.354-2.723 2.962v.024c0 1.727 1.139 2.998 2.854 2.998.792 0 1.511-.252 2.027-.636V76.01h-2.146v-1.283h3.574v3.526a5.357 5.357 0 0 1-3.502 1.307c-2.626 0-4.353-1.871-4.353-4.318zM72.901 71.021h6.225v1.319h-4.75v2.183h4.21v1.319h-4.21v2.255h4.81v1.319h-6.285v-8.395zM81.685 71.021h3.131c2.638 0 4.461 1.812 4.461 4.174v.024c0 2.362-1.823 4.197-4.461 4.197h-3.131v-8.395zm1.475 1.344v5.709h1.655c1.763 0 2.914-1.188 2.914-2.831v-.023c0-1.644-1.151-2.854-2.914-2.854H83.16zM99.131 70.961h1.368l3.694 8.455h-1.559l-.852-2.027h-3.97l-.864 2.027h-1.511l3.694-8.455zm2.111 5.121l-1.451-3.358-1.439 3.358h2.89zM106.381 71.021h3.31c1.967 0 3.19 1.115 3.19 2.807v.023c0 1.884-1.511 2.867-3.358 2.867h-1.667v2.698h-1.475v-8.395zm3.19 4.365c1.116 0 1.811-.623 1.811-1.499v-.023c0-.983-.708-1.499-1.811-1.499h-1.715v3.021h1.715zM115.141 71.021h3.311c1.967 0 3.19 1.115 3.19 2.807v.023c0 1.884-1.511 2.867-3.358 2.867h-1.667v2.698h-1.476v-8.395zm3.19 4.365c1.115 0 1.811-.623 1.811-1.499v-.023c0-.983-.707-1.499-1.811-1.499h-1.715v3.021h1.715zM123.337 78.193l.888-1.055c.804.695 1.619 1.091 2.65 1.091.912 0 1.487-.432 1.487-1.056v-.023c0-.6-.336-.924-1.895-1.283-1.787-.432-2.794-.96-2.794-2.507v-.024c0-1.438 1.199-2.435 2.866-2.435 1.224 0 2.195.372 3.046 1.056l-.792 1.115c-.756-.563-1.511-.863-2.279-.863-.863 0-1.367.443-1.367.995v.024c0 .647.384.936 2.003 1.319 1.775.432 2.687 1.067 2.687 2.458v.024c0 1.571-1.235 2.507-2.999 2.507a5.174 5.174 0 0 1-3.501-1.343z"/></g><g><path class="st0" d="M38.903 187.286h1.571l2.555 3.97 2.555-3.97h1.571v8.396H45.68v-6.021l-2.65 3.958h-.048l-2.627-3.935v5.997h-1.451v-8.395zM53.038 187.226h1.367l3.694 8.455H56.54l-.852-2.027h-3.97l-.863 2.027h-1.511l3.694-8.455zm2.11 5.121l-1.451-3.358-1.439 3.358h2.89zM59.58 194.458l.888-1.055c.803.695 1.619 1.091 2.65 1.091.912 0 1.487-.432 1.487-1.056v-.023c0-.6-.336-.924-1.895-1.283-1.787-.432-2.794-.96-2.794-2.507v-.025c0-1.438 1.199-2.435 2.867-2.435 1.223 0 2.194.372 3.046 1.056l-.792 1.115c-.755-.563-1.511-.863-2.279-.863-.863 0-1.367.443-1.367.995v.024c0 .647.384.936 2.003 1.319 1.775.432 2.687 1.067 2.687 2.458v.024c0 1.571-1.235 2.507-2.998 2.507a5.161 5.161 0 0 1-3.503-1.342zM70.45 188.653h-2.663v-1.367H74.6v1.367h-2.662v7.028H70.45v-7.028zM76.907 187.286h6.225v1.319h-4.749v2.183h4.209v1.319h-4.209v2.255h4.809v1.319h-6.285v-8.395zM85.691 187.286h3.742c1.055 0 1.883.312 2.423.84.444.455.696 1.079.696 1.811v.024c0 1.379-.828 2.207-1.991 2.542l2.267 3.179h-1.751l-2.062-2.927h-1.847v2.927h-1.475v-8.396zm3.634 4.162c1.056 0 1.727-.552 1.727-1.403v-.024c0-.899-.648-1.391-1.739-1.391h-2.147v2.818h2.159zM104.156 194.71c-.72.672-1.559 1.092-2.566 1.092-1.571 0-2.747-.947-2.747-2.398v-.024c0-1.079.636-1.859 1.787-2.351-.48-.611-.696-1.14-.696-1.751v-.024c0-1.127.912-2.11 2.411-2.11 1.332 0 2.231.899 2.231 2.026v.024c0 1.104-.731 1.763-1.847 2.183l1.439 1.463c.324-.479.624-1.031.9-1.619l1.115.588c-.335.672-.708 1.331-1.139 1.907l1.331 1.343-1.104.792-1.115-1.141zm-.839-.864l-1.871-1.907c-.78.336-1.116.852-1.116 1.392v.023c0 .708.588 1.224 1.403 1.224.577 0 1.104-.275 1.584-.732zm-.048-4.569v-.024c0-.563-.396-.947-.947-.947-.6 0-1.007.42-1.007 1.008v.023c0 .42.167.731.635 1.247.863-.312 1.319-.707 1.319-1.307zM12.174 201.686h3.742c1.055 0 1.883.312 2.423.84.444.455.696 1.079.696 1.811v.024c0 1.379-.828 2.207-1.991 2.542l2.267 3.179H17.56l-2.062-2.927h-1.847v2.927h-1.475v-8.396zm3.634 4.162c1.056 0 1.727-.552 1.727-1.403v-.024c0-.899-.648-1.391-1.739-1.391h-2.147v2.818h2.159zM21.594 201.686h6.225v1.319h-4.75v2.183h4.209v1.319h-4.209v2.255h4.809v1.319h-6.284v-8.395zM30.377 201.686h6.249v1.344h-4.773v2.29h4.234v1.344h-4.234v3.418h-1.475v-8.396zM38.993 201.686h6.225v1.319h-4.749v2.183h4.209v1.319h-4.209v2.255h4.81v1.319h-6.285v-8.395zM47.777 201.686h3.742c1.055 0 1.883.312 2.422.84.444.455.696 1.079.696 1.811v.024c0 1.379-.828 2.207-1.991 2.542l2.267 3.179h-1.751l-2.062-2.927h-1.847v2.927h-1.476v-8.396zm3.634 4.162c1.056 0 1.728-.552 1.728-1.403v-.024c0-.899-.648-1.391-1.739-1.391h-2.146v2.818h2.157zM57.197 201.686h6.225v1.319h-4.749v2.183h4.209v1.319h-4.209v2.255h4.809v1.319h-6.285v-8.395zM65.981 201.686h1.367l4.497 5.805v-5.805h1.452v8.396h-1.235l-4.629-5.973v5.973h-1.451v-8.396zM75.833 205.908v-.023c0-2.387 1.787-4.342 4.33-4.342 1.547 0 2.482.539 3.286 1.307l-.947 1.092c-.672-.624-1.392-1.043-2.351-1.043-1.595 0-2.771 1.318-2.771 2.962v.024c0 1.643 1.164 2.974 2.771 2.974 1.032 0 1.691-.407 2.411-1.079l.947.96c-.875.911-1.835 1.486-3.406 1.486-2.447-.001-4.27-1.907-4.27-4.318zM85.805 201.686h6.225v1.319h-4.75v2.183h4.209v1.319H87.28v2.255h4.81v1.319h-6.285v-8.395zM98.933 201.686h3.131c2.638 0 4.461 1.812 4.461 4.174v.024c0 2.362-1.823 4.197-4.461 4.197h-3.131v-8.395zm1.475 1.344v5.709h1.655c1.763 0 2.914-1.188 2.914-2.831v-.023c0-1.644-1.151-2.854-2.914-2.854h-1.655zM111.447 201.627h1.367l3.694 8.455h-1.56l-.852-2.027h-3.97l-.863 2.027h-1.511l3.695-8.455zm2.111 5.121l-1.451-3.358-1.439 3.358h2.89zM119.68 203.054h-2.662v-1.367h6.812v1.367h-2.663v7.028h-1.487v-7.028zM128.031 201.627h1.367l3.694 8.455h-1.56l-.852-2.027h-3.97l-.863 2.027h-1.511l3.695-8.455zm2.111 5.121l-1.451-3.358-1.439 3.358h2.89z"/></g><g><path d="M78.793 173.352h-8.339a.928.928 0 0 1-.928-.928v-15.471c0-.513.416-.928.928-.928h8.339c.513 0 .928.416.928.928v15.471a.927.927 0 0 1-.928.928z" fill-rule="evenodd" clip-rule="evenodd" fill="#fff"/><path class="st0" d="M77.922 157.824v13.728h-6.595v-13.728h6.595m.871-1.8h-8.339a.928.928 0 0 0-.928.928v15.471c0 .513.416.928.928.928h8.339a.928.928 0 0 0 .928-.928v-15.471a.927.927 0 0 0-.928-.928z"/><path class="st0" d="M78.273 170.263h-7.26a.9.9 0 0 1 0-1.8h7.26a.9.9 0 0 1 0 1.8zM64.64 161.148H46.203c-.865 0-1.624-.562-1.765-1.309l-.411-2.154a.9.9 0 0 1 .884-1.069h21.021a.9.9 0 0 1 .884 1.069l-.411 2.155c-.142.746-.901 1.308-1.765 1.308zm-18.468-1.822l18.467.021c.012-.002.022-.002.026 0l.178-.931H45.999l.173.91z"/><path class="st2" d="M47.687 157.199v-9.16h15.469v9.214"/><path class="st0" d="M63.156 158.253a1 1 0 0 1-1-1v-8.214h-13.47v8.16a1 1 0 1 1-2 0v-9.16a1 1 0 0 1 1-1h15.47a1 1 0 0 1 1 1v9.214a1 1 0 0 1-1 1z"/><path class="st0" d="M56.445 147.268h-2v-4.916a1 1 0 0 1 1-1h39.5a1 1 0 0 1 1 1v4.798h-2v-3.798h-37.5v3.916z"/><path class="st0" d="M73.68 134.852h2v22.285h-2z"/><circle class="st2" cx="74.68" cy="142.477" r="3.917"/><path class="st0" d="M74.68 147.393c-2.711 0-4.917-2.205-4.917-4.916s2.206-4.917 4.917-4.917 4.917 2.206 4.917 4.917-2.206 4.916-4.917 4.916zm0-7.833a2.92 2.92 0 0 0-2.917 2.917c0 1.607 1.309 2.916 2.917 2.916s2.917-1.309 2.917-2.916a2.922 2.922 0 0 0-2.917-2.917z"/><g><path class="st0" d="M74.68 121.103c-3.855 0-10.38-.755-10.38-3.584s6.524-3.584 10.38-3.584c3.855 0 10.379.755 10.379 3.584s-6.524 3.584-10.379 3.584zm-8.327-3.584c.521.534 3.289 1.584 8.327 1.584s7.805-1.05 8.326-1.584c-.521-.534-3.288-1.584-8.326-1.584s-7.805 1.05-8.327 1.584zM74.68 125.825c-3.855 0-10.38-.755-10.38-3.584h2c.245.401 3.033 1.584 8.38 1.584 5.346 0 8.135-1.183 8.397-1.676l1.982.092c0 2.829-6.524 3.584-10.379 3.584zM74.68 130.547c-3.855 0-10.38-.755-10.38-3.584h2c.245.401 3.033 1.584 8.38 1.584 5.346 0 8.135-1.183 8.397-1.676l1.982.092c0 2.829-6.524 3.584-10.379 3.584zM74.68 135.268c-3.855 0-10.38-.755-10.38-3.584h2c.245.401 3.033 1.584 8.38 1.584 5.346 0 8.135-1.183 8.397-1.676l1.982.092c0 2.829-6.524 3.584-10.379 3.584z"/><path class="st0" d="M64.308 117.567h2v14.372h-2zM83.043 117.567h2v14.372h-2z"/></g><g><path class="st2" d="M86.447 147.428a.679.679 0 0 0-.679.679v10.877c0 .375.304.679.679.679h17.02a.679.679 0 0 0 .679-.679v-10.877a.679.679 0 0 0-.679-.679h-17.02z"/><path class="st0" d="M103.467 160.564h-17.02a1.581 1.581 0 0 1-1.579-1.579v-10.878c0-.87.708-1.579 1.579-1.579h17.02c.871 0 1.579.709 1.579 1.579v10.878c0 .87-.708 1.579-1.579 1.579zm-16.799-1.801h16.579v-10.435H86.668v10.435zm16.799-10.434h.01-.01z"/><path class="st0" d="M104.07 157.358H85.845a.9.9 0 0 1 0-1.8h18.225a.9.9 0 0 1 0 1.8zM97.44 163.808h-4.965a.9.9 0 0 1-.574-1.595c.013-.012.616-.563.657-1.746a.912.912 0 0 1 .93-.868.9.9 0 0 1 .869.931 4.893 4.893 0 0 1-.273 1.478h1.828a5.395 5.395 0 0 1-.352-1.479.9.9 0 0 1 .817-.976c.508-.029.932.322.976.817.1 1.129.77 1.951.777 1.959a.9.9 0 1 1-.69 1.479z"/></g></g><g><path class="st0" d="M96.75 290.509c-2.622 0-4.308-1.645-5.938-3.234-1.52-1.481-2.955-2.881-5.098-2.881-2.337 0-3.9 1.489-5.554 3.066-1.572 1.499-3.198 3.049-5.482 3.049-2.73 0-4.773-1.844-6.576-3.471-1.507-1.359-2.931-2.645-4.46-2.645-1.493 0-2.877 1.262-4.343 2.597-1.811 1.649-3.863 3.519-6.693 3.519-3.85 0-6.291-3.332-6.393-3.474l1.624-1.168c.018.024 1.957 2.642 4.769 2.642 2.056 0 3.654-1.456 5.346-2.997 1.683-1.533 3.423-3.118 5.69-3.118 2.299 0 4.079 1.606 5.8 3.16 1.684 1.52 3.275 2.955 5.236 2.955 1.484 0 2.697-1.157 4.103-2.496 1.779-1.696 3.795-3.619 6.934-3.619 2.957 0 4.836 1.832 6.494 3.449 1.467 1.431 2.733 2.666 4.542 2.666 3.332 0 4.689-2.426 4.745-2.529l1.767.938c-.078.145-1.943 3.591-6.513 3.591zM96.75 282.146c-2.622 0-4.308-1.644-5.938-3.233-1.52-1.481-2.955-2.881-5.098-2.881-2.338 0-3.9 1.489-5.554 3.065-1.572 1.499-3.198 3.049-5.482 3.049-2.73 0-4.773-1.844-6.576-3.47-1.507-1.36-2.931-2.645-4.46-2.645-1.493 0-2.877 1.261-4.343 2.597-1.811 1.648-3.863 3.518-6.693 3.518-3.85 0-6.291-3.332-6.393-3.474l1.624-1.168c.018.024 1.957 2.642 4.769 2.642 2.056 0 3.654-1.455 5.346-2.996 1.683-1.533 3.423-3.118 5.69-3.118 2.299 0 4.079 1.606 5.8 3.159 1.684 1.52 3.275 2.955 5.236 2.955 1.484 0 2.697-1.156 4.103-2.496 1.779-1.696 3.795-3.618 6.934-3.618 2.957 0 4.836 1.832 6.494 3.448 1.467 1.431 2.734 2.666 4.542 2.666 3.332 0 4.689-2.426 4.745-2.529l1.767.938c-.078.146-1.943 3.591-6.513 3.591zM96.75 298.87c-2.622 0-4.308-1.644-5.938-3.233-1.52-1.481-2.955-2.881-5.098-2.881-2.338 0-3.9 1.489-5.554 3.065-1.572 1.499-3.198 3.049-5.482 3.049-2.73 0-4.773-1.844-6.576-3.47-1.507-1.36-2.931-2.645-4.46-2.645-1.493 0-2.877 1.261-4.343 2.597-1.811 1.648-3.863 3.518-6.693 3.518-3.85 0-6.291-3.331-6.393-3.473l1.624-1.168c.017.024 1.957 2.641 4.769 2.641 2.056 0 3.654-1.455 5.346-2.996 1.683-1.533 3.423-3.118 5.69-3.118 2.299 0 4.079 1.606 5.8 3.159 1.684 1.52 3.275 2.955 5.236 2.955 1.484 0 2.697-1.156 4.103-2.496 1.779-1.696 3.795-3.618 6.934-3.618 2.957 0 4.836 1.832 6.494 3.448 1.467 1.431 2.734 2.666 4.542 2.666 3.332 0 4.689-2.425 4.745-2.528l1.767.938c-.078.146-1.943 3.59-6.513 3.59z"/></g><g><path class="st0" d="M80.767 38.618a.999.999 0 0 1-1-1v-9.263L58.568 18.008a.998.998 0 0 1-.46-1.337.995.995 0 0 1 1.337-.46l21.46 10.475a.99.99 0 0 1 .208.135c.41.347.654.882.654 1.432v7.785l5.664-2.683v-8.629l-21.2-10.348a1 1 0 1 1 .877-1.797l21.46 10.476c.074.036.144.081.207.134.411.346.656.882.656 1.433v9.365c0 .386-.223.738-.572.904l-7.664 3.63a1.003 1.003 0 0 1-.428.095z"/><path class="st0" d="M73.68 57.42a.996.996 0 0 1-.424-.094l-21.448-10.04c-.98-.461-1.612-1.49-1.612-2.623V21.65c0-1.004.431-1.913 1.154-2.432a.972.972 0 0 1 .159-.093l21.253-9.972a2.51 2.51 0 0 1 2.152.009l21 10.068a.97.97 0 0 1 .214.139c.648.549 1.036 1.402 1.036 2.282v23.013c0 1.133-.632 2.163-1.611 2.623l-21.449 10.04a1.03 1.03 0 0 1-.424.093zM52.466 20.884c-.139.135-.271.412-.271.766v23.013c0 .356.186.683.461.812l21.023 9.84 21.024-9.841c.274-.129.46-.456.46-.812V21.65c0-.281-.12-.532-.257-.685l-20.857-9.999a.516.516 0 0 0-.441-.002l-21.142 9.92z"/><path class="st0" d="M73.68 56.684a1 1 0 0 1-1-1V32.671c0-.281-.12-.532-.257-.685l-20.857-9.999a1 1 0 0 1 .864-1.804l21 10.067a.97.97 0 0 1 .214.139c.649.549 1.037 1.402 1.037 2.282v23.013c-.001.552-.449 1-1.001 1z"/><path class="st0" d="M73.691 32.638a.999.999 0 0 1-.432-1.902l21-10.067a1 1 0 0 1 .864 1.804l-21 10.067a.993.993 0 0 1-.432.098z"/><path class="st0" d="M73.68 57.42a.996.996 0 0 1-.424-.094l-21.448-10.04c-.98-.461-1.612-1.49-1.612-2.623V21.65c0-1.004.431-1.913 1.154-2.432a.972.972 0 0 1 .159-.093l21.253-9.972a2.51 2.51 0 0 1 2.152.009l21 10.068a.97.97 0 0 1 .214.139c.648.549 1.036 1.402 1.036 2.282v23.013c0 1.133-.632 2.163-1.611 2.623l-21.449 10.04a1.03 1.03 0 0 1-.424.093zM52.466 20.884c-.139.135-.271.412-.271.766v23.013c0 .356.186.683.461.812l21.023 9.84 21.024-9.841c.274-.129.46-.456.46-.812V21.65c0-.281-.12-.532-.257-.685l-20.857-9.999a.516.516 0 0 0-.441-.002l-21.142 9.92z"/><path class="st0" d="M73.68 57.42a.996.996 0 0 1-.424-.094l-21.448-10.04c-.98-.461-1.612-1.49-1.612-2.623V21.65c0-1.004.431-1.913 1.154-2.432a.972.972 0 0 1 .159-.093l21.253-9.972a2.51 2.51 0 0 1 2.152.009l21 10.068a.97.97 0 0 1 .214.139c.648.549 1.036 1.402 1.036 2.282v23.013c0 1.133-.632 2.163-1.611 2.623l-21.449 10.04a1.03 1.03 0 0 1-.424.093zM52.466 20.884c-.139.135-.271.412-.271.766v23.013c0 .356.186.683.461.812l21.023 9.84 21.024-9.841c.274-.129.46-.456.46-.812V21.65c0-.281-.12-.532-.257-.685l-20.857-9.999a.516.516 0 0 0-.441-.002l-21.142 9.92z"/></g><g><path class="st0" d="M96.599 394.849H52.876a1 1 0 0 1-1-1V355.59c0-.349.182-.672.479-.854l21.861-13.351a1.001 1.001 0 0 1 1.042 0l21.862 13.351c.297.182.479.505.479.854v38.259a1 1 0 0 1-1 1zm-42.723-2h41.723v-36.697l-20.862-12.74-20.861 12.74v36.697z"/><path class="st0" d="M74.737 379.623c-4.106 0-11.056-.794-11.056-3.771h2c.24.475 3.207 1.771 9.056 1.771 5.85 0 8.816-1.296 9.068-1.837l1.989.066c0 2.977-6.95 3.771-11.057 3.771zM74.737 384.685c-4.106 0-11.056-.794-11.056-3.771h2c.24.475 3.207 1.771 9.056 1.771 5.85 0 8.816-1.296 9.068-1.837l1.989.066c0 2.977-6.95 3.771-11.057 3.771z"/><path class="st3" d="M64.69 370.841v15.41"/><path class="st0" d="M63.689 370.841h2v15.41h-2z"/><path class="st3" d="M84.777 370.841v15.41"/><path class="st0" d="M83.777 370.841h2v15.41h-2zM65.845 357.94v2.119h-5.526v-2.119h5.526m2-2h-9.526v6.119h9.526v-6.119zM77.47 357.94v2.119h-5.526v-2.119h5.526m2-2h-9.526v6.119h9.526v-6.119zM89.096 357.94v2.119H83.57v-2.119h5.526m2-2H81.57v6.119h9.526v-6.119z"/><path class="st4" d="M65.07 371.374h19.972v15.13H65.07z"/><path class="st0" d="M74.737 374.56c-4.106 0-11.056-.794-11.056-3.771s6.95-3.771 11.056-3.771 11.057.794 11.057 3.771-6.95 3.771-11.057 3.771zm-9.026-3.77c.444.573 3.402 1.771 9.026 1.771s8.583-1.197 9.026-1.771c-.444-.573-3.403-1.771-9.026-1.771s-8.582 1.198-9.026 1.771zM74.737 389.748c-4.106 0-11.056-.794-11.056-3.771h2c.24.475 3.207 1.771 9.056 1.771 5.85 0 8.816-1.296 9.068-1.837l1.989.066c0 2.977-6.95 3.771-11.057 3.771z"/></g><g><path class="st0" d="M74.711 257.834c-4.865 0-13.098-.912-13.098-4.333h2c.153.635 3.798 2.333 11.098 2.333s10.945-1.698 11.099-2.343l1.999.01c.001 3.421-8.233 4.333-13.098 4.333zM74.711 263.924c-4.865 0-13.098-.912-13.098-4.333h2c.153.635 3.798 2.333 11.098 2.333s10.945-1.698 11.099-2.343l1.999.01c.001 3.421-8.233 4.333-13.098 4.333z"/><path class="st3" d="M62.624 247.472v18.538"/><path class="st0" d="M61.624 247.472h2v18.538h-2z"/><g><path class="st3" d="M86.789 247.472v18.538"/><path class="st0" d="M85.789 247.472h2v18.538h-2z"/></g><path class="st4" d="M63.082 248.114h24.027v18.202H63.082z"/><path class="st0" d="M74.711 251.744c-6.309 0-13.098-1.356-13.098-4.334 0-3.421 8.233-4.333 13.098-4.333s13.098.912 13.098 4.333c.001 2.977-6.789 4.334-13.098 4.334zm0-6.667c-7.3 0-10.945 1.698-11.099 2.343.154.626 3.799 2.324 11.099 2.324 7.262 0 10.908-1.681 11.096-2.334-.188-.652-3.834-2.333-11.096-2.333zM74.711 270.014c-6.309 0-13.098-1.356-13.098-4.334h2c.153.636 3.798 2.334 11.098 2.334s10.945-1.698 11.099-2.344l1.999.01c.001 2.978-6.789 4.334-13.098 4.334z"/></g></g><g><path class="st0" d="M343.982 255.089v-.023c0-2.387 1.787-4.342 4.33-4.342 1.547 0 2.482.539 3.285 1.307l-.947 1.092c-.672-.624-1.391-1.043-2.351-1.043-1.595 0-2.771 1.318-2.771 2.962v.024c0 1.643 1.164 2.974 2.771 2.974 1.031 0 1.691-.407 2.411-1.079l.947.96c-.876.911-1.835 1.486-3.406 1.486-2.446-.001-4.269-1.907-4.269-4.318zM353.954 250.867h1.476v7.053h4.413v1.343h-5.889v-8.396zM361.273 255.089v-.023c0-2.363 1.823-4.342 4.402-4.342 2.578 0 4.377 1.955 4.377 4.317v.024c0 2.362-1.822 4.341-4.401 4.341-2.578 0-4.378-1.954-4.378-4.317zm7.233 0v-.023c0-1.632-1.188-2.986-2.854-2.986s-2.83 1.331-2.83 2.962v.024c0 1.631 1.188 2.974 2.854 2.974s2.83-1.32 2.83-2.951zM372.458 255.7v-4.833h1.476v4.773c0 1.56.803 2.387 2.122 2.387 1.308 0 2.111-.779 2.111-2.327v-4.833h1.476v4.762c0 2.507-1.416 3.766-3.61 3.766-2.183-.001-3.575-1.259-3.575-3.695zM382.418 250.867h3.13c2.639 0 4.462 1.812 4.462 4.174v.024c0 2.362-1.823 4.197-4.462 4.197h-3.13v-8.395zm1.475 1.344v5.709h1.655c1.763 0 2.914-1.188 2.914-2.831v-.023c0-1.644-1.151-2.854-2.914-2.854h-1.655zM350.275 265.267h3.131c2.639 0 4.461 1.812 4.461 4.174v.024c0 2.362-1.822 4.197-4.461 4.197h-3.131v-8.395zm1.476 1.344v5.709h1.655c1.763 0 2.914-1.188 2.914-2.831v-.023c0-1.644-1.151-2.854-2.914-2.854h-1.655zM362.79 265.208h1.368l3.693 8.455h-1.559l-.852-2.027h-3.971l-.863 2.027h-1.511l3.695-8.455zm2.111 5.121l-1.451-3.358-1.439 3.358h2.89zM371.023 266.635h-2.663v-1.367h6.812v1.367h-2.663v7.028h-1.486v-7.028zM379.374 265.208h1.368l3.693 8.455h-1.559l-.852-2.027h-3.971l-.863 2.027h-1.511l3.695-8.455zm2.111 5.121l-1.451-3.358-1.439 3.358h2.89z"/><g><path class="st0" d="M384.998 226.239h-9.741a1 1 0 0 1-1-1v-9.342a1 1 0 0 1 .999-1c3.091-.004 9.728-.006 10.48-.006 4.866-.683 8.528-4.914 8.528-9.87 0-5.465-4.447-9.91-9.914-9.91a1 1 0 0 1-1-1 6.494 6.494 0 0 0-6.486-6.486 6.444 6.444 0 0 0-4.578 1.892 1.001 1.001 0 0 1-1.613-.287 12.989 12.989 0 0 0-11.741-7.494c-7.137 0-12.942 5.806-12.942 12.942 0 1.864.387 3.662 1.15 5.344a.998.998 0 0 1-.878 1.412 6.723 6.723 0 0 0-6.53 6.751 6.762 6.762 0 0 0 6.754 6.754c.032 0 7.919-.004 12.135-.009h.001a.997.997 0 0 1 1 1v9.31a1 1 0 0 1-1 1h-9.831a1 1 0 1 1 0-2h8.831v-7.309c-4.354.005-11.123.008-11.136.008-4.827 0-8.754-3.927-8.754-8.754a8.711 8.711 0 0 1 7.083-8.597 14.848 14.848 0 0 1-.825-4.91c0-8.239 6.703-14.942 14.942-14.942 5.357 0 10.312 2.904 12.957 7.499a8.425 8.425 0 0 1 4.976-1.609c4.354 0 7.952 3.296 8.432 7.523 6.129.483 10.969 5.624 10.969 11.873 0 5.976-4.439 11.075-10.327 11.861a.99.99 0 0 1-.133.009c-.122 0-6.026.002-9.548.005v7.343h8.741a1 1 0 1 1-.001 1.999z"/><path class="st0" d="M365.998 214.981h2v11.301h-2zM343.614 231.123c-3.244 0-5.883-2.64-5.883-5.884s2.639-5.883 5.883-5.883 5.883 2.639 5.883 5.883-2.639 5.884-5.883 5.884zm0-9.767a3.888 3.888 0 0 0-3.883 3.883c0 2.142 1.742 3.884 3.883 3.884s3.883-1.742 3.883-3.884a3.888 3.888 0 0 0-3.883-3.883zM390.381 231.123c-3.244 0-5.883-2.64-5.883-5.884s2.639-5.883 5.883-5.883 5.884 2.639 5.884 5.883-2.64 5.884-5.884 5.884zm0-9.767a3.888 3.888 0 0 0-3.883 3.883 3.888 3.888 0 0 0 3.883 3.884 3.888 3.888 0 0 0 3.884-3.884 3.888 3.888 0 0 0-3.884-3.883z"/><path class="st0" d="M366.998 237.049c-3.244 0-5.884-2.639-5.884-5.883s2.64-5.884 5.884-5.884 5.883 2.64 5.883 5.884-2.639 5.883-5.883 5.883zm0-9.767a3.888 3.888 0 0 0-3.884 3.884 3.888 3.888 0 0 0 3.884 3.883 3.888 3.888 0 0 0 3.883-3.883 3.888 3.888 0 0 0-3.883-3.884z"/></g></g><g><path class="st0" d="M239.146 314.927h3.766c.959 0 1.715.264 2.195.744.372.371.563.827.563 1.391v.024c0 1.007-.576 1.547-1.199 1.871.983.335 1.667.899 1.667 2.038v.024c0 1.499-1.235 2.303-3.106 2.303h-3.886v-8.395zm5.049 2.375c0-.66-.528-1.067-1.475-1.067h-2.123v2.23h2.015c.948 0 1.583-.372 1.583-1.14v-.023zm-1.259 2.41h-2.339v2.303h2.447c1.007 0 1.619-.396 1.619-1.151v-.023c0-.709-.564-1.129-1.727-1.129zM248.637 314.927h1.475v8.396h-1.475v-8.396zM252.729 319.148v-.023c0-2.352 1.799-4.342 4.33-4.342 1.463 0 2.363.407 3.226 1.139l-.936 1.116c-.647-.552-1.283-.899-2.351-.899-1.547 0-2.723 1.354-2.723 2.962v.024c0 1.727 1.14 2.998 2.854 2.998.792 0 1.511-.252 2.027-.636v-1.571h-2.147v-1.283h3.574v3.526a5.355 5.355 0 0 1-3.502 1.307c-2.625 0-4.352-1.871-4.352-4.318zM267.597 314.927h3.131c2.638 0 4.461 1.812 4.461 4.174v.024c0 2.362-1.823 4.197-4.461 4.197h-3.131v-8.395zm1.475 1.343v5.709h1.655c1.763 0 2.914-1.188 2.914-2.831v-.023c0-1.644-1.151-2.854-2.914-2.854h-1.655zM280.111 314.867h1.367l3.694 8.455h-1.56l-.852-2.027h-3.97l-.863 2.027h-1.511l3.695-8.455zm2.111 5.121l-1.451-3.358-1.439 3.358h2.89zM288.344 316.294h-2.662v-1.367h6.812v1.367h-2.663v7.028h-1.487v-7.028zM296.695 314.867h1.367l3.694 8.455h-1.56l-.852-2.027h-3.97l-.863 2.027H293l3.695-8.455zm2.111 5.121l-1.451-3.358-1.439 3.358h2.89z"/><g><path class="st0" d="M253.34 289.164c-4.486 0-12.078-.854-12.078-4.052h2c.259.694 3.953 2.052 10.078 2.052s9.819-1.357 10.082-2.086l1.996.034c0 3.198-7.592 4.052-12.078 4.052zM253.34 294.74c-4.486 0-12.078-.854-12.078-4.052h2c.259.694 3.953 2.052 10.078 2.052s9.819-1.357 10.082-2.086l1.996.034c0 3.199-7.592 4.052-12.078 4.052zM253.34 300.316c-4.486 0-12.078-.854-12.078-4.052h2c.259.694 3.953 2.052 10.078 2.052s9.819-1.357 10.082-2.086l1.996.034c0 3.199-7.592 4.052-12.078 4.052z"/><path class="st0" d="M241.272 279.592h2v16.975h-2zM263.399 279.592h2v16.975h-2zM287.59 289.164c-4.486 0-12.078-.854-12.078-4.052h2c.259.694 3.953 2.052 10.078 2.052s9.819-1.357 10.082-2.086l1.996.034c0 3.198-7.592 4.052-12.078 4.052zM287.59 294.74c-4.486 0-12.078-.854-12.078-4.052h2c.259.694 3.953 2.052 10.078 2.052s9.819-1.357 10.082-2.086l1.996.034c0 3.199-7.592 4.052-12.078 4.052zM287.59 300.316c-4.486 0-12.078-.854-12.078-4.052h2c.259.694 3.953 2.052 10.078 2.052s9.819-1.357 10.082-2.086l1.996.034c0 3.199-7.592 4.052-12.078 4.052z"/><path class="st0" d="M275.522 279.592h2v16.975h-2zM297.649 279.592h2v16.975h-2zM270.465 259.914c-4.486 0-12.078-.854-12.078-4.052h2c.259.694 3.953 2.052 10.078 2.052s9.819-1.357 10.082-2.086l1.996.034c0 3.198-7.592 4.052-12.078 4.052zM270.465 265.49c-4.486 0-12.078-.854-12.078-4.052h2c.259.694 3.953 2.052 10.078 2.052s9.819-1.357 10.082-2.086l1.996.034c0 3.199-7.592 4.052-12.078 4.052zM270.465 271.066c-4.486 0-12.078-.854-12.078-4.052h2c.259.694 3.953 2.052 10.078 2.052s9.819-1.357 10.082-2.086l1.996.034c0 3.199-7.592 4.052-12.078 4.052z"/><path class="st0" d="M258.397 250.342h2v16.975h-2zM280.524 250.342h2v16.975h-2zM264.418 284.987h12.095v2h-12.095z"/><path transform="rotate(-45.001 258.378 272.576)" class="st0" d="M253.187 271.572h10.386v2h-10.386z"/><path transform="rotate(-45.001 282.67 272.577)" class="st0" d="M281.672 267.379h2v10.386h-2z"/><path class="st0" d="M253.34 283.606c-4.486 0-12.078-.854-12.078-4.052 0-3.199 7.592-4.053 12.078-4.053s12.078.854 12.078 4.053-7.592 4.052-12.078 4.052zm0-6.104c-6.554 0-9.868 1.492-10.082 2.087.263.66 3.958 2.018 10.082 2.018 6.029 0 9.704-1.315 10.067-2.051-.321-.616-3.633-2.054-10.067-2.054zM287.59 283.606c-4.486 0-12.078-.854-12.078-4.052 0-3.199 7.592-4.053 12.078-4.053s12.078.854 12.078 4.053-7.592 4.052-12.078 4.052zm0-6.104c-6.554 0-9.868 1.492-10.082 2.087.263.66 3.958 2.018 10.082 2.018 6.029 0 9.704-1.315 10.067-2.051-.321-.616-3.633-2.054-10.067-2.054zM270.465 254.356c-4.486 0-12.078-.854-12.078-4.052 0-3.199 7.592-4.053 12.078-4.053s12.078.854 12.078 4.053-7.592 4.052-12.078 4.052zm0-6.104c-6.554 0-9.868 1.492-10.082 2.087.263.66 3.958 2.018 10.082 2.018 6.029 0 9.704-1.315 10.067-2.051-.321-.616-3.633-2.054-10.067-2.054z"/></g><g><path class="st0" d="M255.105 181.972h1.595l2.003 6.225 2.063-6.248h1.247l2.063 6.248 2.003-6.225h1.547l-2.914 8.455h-1.283l-2.063-6.032-2.063 6.032h-1.271l-2.927-8.455zM269.889 181.972h6.225v1.319h-4.749v2.183h4.209v1.319h-4.209v2.255h4.809v1.319h-6.285v-8.395zM278.673 181.972h3.766c.959 0 1.715.264 2.195.744.372.371.564.827.564 1.391v.024c0 1.007-.576 1.547-1.199 1.871.983.335 1.667.899 1.667 2.038v.024c0 1.499-1.235 2.303-3.106 2.303h-3.886v-8.395zm5.049 2.375c0-.66-.527-1.067-1.475-1.067h-2.123v2.23h2.015c.947 0 1.583-.372 1.583-1.14v-.023zm-1.259 2.411h-2.339v2.303h2.446c1.008 0 1.619-.396 1.619-1.151v-.023c0-.709-.563-1.129-1.726-1.129zM237.609 203.545l.888-1.055c.803.695 1.619 1.091 2.65 1.091.911 0 1.487-.432 1.487-1.056v-.023c0-.6-.336-.924-1.896-1.283-1.787-.432-2.794-.96-2.794-2.507v-.024c0-1.438 1.199-2.435 2.866-2.435 1.223 0 2.195.372 3.046 1.056l-.792 1.115c-.756-.563-1.511-.863-2.279-.863-.864 0-1.368.443-1.368.995v.024c0 .647.384.936 2.003 1.319 1.775.432 2.687 1.067 2.687 2.458v.024c0 1.571-1.235 2.507-2.998 2.507a5.174 5.174 0 0 1-3.5-1.343zM246.597 196.373h6.225v1.319h-4.749v2.183h4.209v1.319h-4.209v2.255h4.81v1.319h-6.285v-8.395zM255.381 196.373h3.742c1.055 0 1.883.312 2.422.84.444.455.696 1.079.696 1.811v.024c0 1.379-.828 2.207-1.991 2.542l2.267 3.179h-1.751l-2.062-2.927h-1.847v2.927h-1.476v-8.396zm3.634 4.162c1.056 0 1.728-.552 1.728-1.403v-.024c0-.899-.648-1.391-1.739-1.391h-2.146v2.818h2.157zM263.841 196.373h1.631l2.53 6.452 2.519-6.452h1.595l-3.478 8.455h-1.308l-3.489-8.455zM274.389 196.373h1.476v8.396h-1.476v-8.396zM278.481 200.595v-.023c0-2.387 1.787-4.342 4.33-4.342 1.547 0 2.482.539 3.286 1.307l-.947 1.092c-.672-.624-1.392-1.043-2.351-1.043-1.595 0-2.771 1.318-2.771 2.962v.024c0 1.643 1.163 2.974 2.771 2.974 1.031 0 1.691-.407 2.411-1.079l.947.96c-.875.911-1.835 1.486-3.406 1.486-2.447-.001-4.27-1.907-4.27-4.318zM288.453 196.373h6.225v1.319h-4.75v2.183h4.21v1.319h-4.21v2.255h4.81v1.319h-6.285v-8.395zM296.673 203.545l.888-1.055c.804.695 1.619 1.091 2.65 1.091.912 0 1.487-.432 1.487-1.056v-.023c0-.6-.336-.924-1.895-1.283-1.787-.432-2.794-.96-2.794-2.507v-.024c0-1.438 1.199-2.435 2.866-2.435 1.224 0 2.195.372 3.046 1.056l-.792 1.115c-.756-.563-1.511-.863-2.279-.863-.863 0-1.367.443-1.367.995v.024c0 .647.384.936 2.003 1.319 1.775.432 2.687 1.067 2.687 2.458v.024c0 1.571-1.235 2.507-2.999 2.507a5.174 5.174 0 0 1-3.501-1.343z"/><g><path class="st0" d="M266.829 136.924l1.357 2.443a1.799 1.799 0 0 0 3.148 0l1.357-2.443c.664.13 1.317.304 1.955.521l-.046 2.797a1.8 1.8 0 0 0 2.726 1.574l2.398-1.438c.508.445.986.923 1.431 1.431l-1.438 2.398a1.8 1.8 0 0 0 1.544 2.726h.03l2.797-.046c.217.638.391 1.291.521 1.955l-2.444 1.357a1.8 1.8 0 0 0 0 3.148l2.444 1.357a15.05 15.05 0 0 1-.521 1.955l-2.797-.046h-.03a1.8 1.8 0 0 0-1.544 2.726l1.438 2.398a15.34 15.34 0 0 1-1.431 1.431l-2.398-1.438a1.797 1.797 0 0 0-1.826-.015 1.8 1.8 0 0 0-.9 1.589l.046 2.798a15.05 15.05 0 0 1-1.955.521l-1.357-2.444a1.8 1.8 0 0 0-3.148 0l-1.357 2.444a15.05 15.05 0 0 1-1.955-.521l.046-2.798a1.8 1.8 0 0 0-2.726-1.574l-2.398 1.438a15.34 15.34 0 0 1-1.431-1.431l1.438-2.398a1.8 1.8 0 0 0-1.544-2.726h-.03l-2.797.046a15.05 15.05 0 0 1-.521-1.955l2.444-1.357a1.8 1.8 0 0 0 0-3.148l-2.444-1.357c.13-.664.304-1.317.521-1.955l2.797.046h.03a1.8 1.8 0 0 0 1.544-2.726l-1.438-2.398a15.34 15.34 0 0 1 1.431-1.431l2.398 1.438a1.797 1.797 0 0 0 1.826.015 1.8 1.8 0 0 0 .9-1.589l-.046-2.797a15.05 15.05 0 0 1 1.955-.521m2.823 23.009c4.605 0 8.352-3.747 8.352-8.352s-3.747-8.352-8.352-8.352-8.352 3.747-8.352 8.352 3.747 8.352 8.352 8.352m2.074-24.979l-1.966 3.539-1.966-3.539a16.826 16.826 0 0 0-4.74 1.265l.067 4.053-3.476-2.084a17.023 17.023 0 0 0-3.469 3.469l2.084 3.476-4.053-.067a16.808 16.808 0 0 0-1.265 4.741l3.54 1.966-3.54 1.966a16.826 16.826 0 0 0 1.265 4.74l4.053-.067-2.084 3.476a17.023 17.023 0 0 0 3.469 3.469l3.476-2.084-.067 4.053a16.81 16.81 0 0 0 4.74 1.265l1.966-3.54 1.966 3.54a16.841 16.841 0 0 0 4.741-1.265l-.067-4.053 3.476 2.084a17.023 17.023 0 0 0 3.469-3.469l-2.084-3.476 4.053.067a16.81 16.81 0 0 0 1.265-4.74l-3.54-1.966 3.54-1.966a16.841 16.841 0 0 0-1.265-4.741l-4.053.067 2.084-3.476a17.023 17.023 0 0 0-3.469-3.469l-3.476 2.084.067-4.053a16.841 16.841 0 0 0-4.741-1.265zm-2.074 23.179a6.552 6.552 0 1 1 0-13.104 6.552 6.552 0 0 1 0 13.104z"/><path class="st0" d="M269.76 149.607c1.194 0 2.166.972 2.166 2.166a2.169 2.169 0 0 1-2.166 2.166 2.169 2.169 0 0 1-2.166-2.166c0-1.194.971-2.166 2.166-2.166m0-1.8a3.966 3.966 0 1 0 0 7.933 3.966 3.966 0 0 0 0-7.933zM269.76 121.876c1.676 0 3.04 1.364 3.04 3.04s-1.364 3.04-3.04 3.04-3.04-1.364-3.04-3.04 1.363-3.04 3.04-3.04m0-1.8a4.84 4.84 0 1 0 0 9.68 4.84 4.84 0 0 0 0-9.68zM295.209 148.733c1.676 0 3.04 1.364 3.04 3.04s-1.364 3.04-3.04 3.04-3.04-1.364-3.04-3.04 1.364-3.04 3.04-3.04m0-1.8a4.84 4.84 0 1 0 0 9.68 4.84 4.84 0 0 0 0-9.68zM288.003 129.859c1.676 0 3.04 1.364 3.04 3.04s-1.364 3.04-3.04 3.04-3.04-1.364-3.04-3.04 1.363-3.04 3.04-3.04m0-1.8a4.84 4.84 0 1 0 0 9.68 4.84 4.84 0 0 0 0-9.68zM250.269 129.859c1.676 0 3.04 1.364 3.04 3.04s-1.364 3.04-3.04 3.04-3.04-1.364-3.04-3.04 1.363-3.04 3.04-3.04m0-1.8a4.84 4.84 0 1 0 0 9.68 4.84 4.84 0 0 0 0-9.68zM243.954 148.733c1.676 0 3.04 1.364 3.04 3.04s-1.364 3.04-3.04 3.04-3.04-1.364-3.04-3.04 1.363-3.04 3.04-3.04m0-1.8a4.84 4.84 0 1 0 0 9.68 4.84 4.84 0 0 0 0-9.68z"/><path class="st0" d="M247.676 150.773h9.083v2h-9.083zM282.519 150.773h9.083v2h-9.083zM268.76 128.812h2v10.312h-2z"/><path transform="rotate(-47.825 255.627 138.322)" class="st0" d="M254.627 134.771h2v7.104h-2z"/><path transform="rotate(-45.001 282.518 138.101)" class="st0" d="M279.465 137.098h6.107v2h-6.107z"/></g></g></g><g><path class="st0" d="M768.858 115.842a.844.844 0 0 1-.087-.004c-6.993-.61-8.292-6.805-9.796-13.976-1.21-5.767-2.581-12.303-6.944-18.149a1 1 0 0 1 1.603-1.196c4.627 6.199 6.108 13.261 7.298 18.934 1.587 7.566 2.742 11.887 7.926 12.387 5.185-.5 6.34-4.821 7.926-12.387 1.19-5.674 2.671-12.735 7.298-18.934a1 1 0 0 1 1.603 1.196c-4.363 5.846-5.734 12.382-6.943 18.148-1.504 7.172-2.803 13.365-9.797 13.977a.819.819 0 0 1-.087.004z"/><path class="st0" d="M768.858 106.93c-.238 0-.477-.014-.708-.041-6.646-.782-7.78-4.437-9.352-9.496-1.168-3.759-2.621-8.438-6.768-13.993l1.604-1.196c4.352 5.83 5.925 10.896 7.074 14.596 1.545 4.976 2.32 7.473 7.677 8.103.31.037.637.036.944 0 5.357-.631 6.133-3.128 7.678-8.103 1.149-3.699 2.723-8.765 7.074-14.596l1.604 1.196c-4.146 5.555-5.6 10.233-6.768 13.993-1.57 5.058-2.706 8.713-9.353 9.496a5.86 5.86 0 0 1-.706.041z"/><path class="st0" d="M768.858 93.843c-.834 0-1.677-.073-2.505-.217l.344-1.971c1.22.213 2.466.244 3.689.094l.244 1.985c-.587.072-1.183.109-1.772.109zm3.869-.52l-.52-1.932a15.449 15.449 0 0 0 3.465-1.425l.971 1.749a17.45 17.45 0 0 1-3.916 1.608zm-8.446-.208a18.243 18.243 0 0 1-3.837-1.764l1.033-1.713a16.197 16.197 0 0 0 3.413 1.572l-.609 1.905zm14.142-2.509l-1.139-1.645a24.472 24.472 0 0 0 2.963-2.438l1.383 1.444a26.339 26.339 0 0 1-3.207 2.639zm-19.715-.421a27.847 27.847 0 0 1-3.132-2.718l1.416-1.413a25.815 25.815 0 0 0 2.903 2.522l-1.187 1.609zm24.364-3.692l-1.471-1.354a38.242 38.242 0 0 0 2.481-3.003l1.602 1.196a40.015 40.015 0 0 1-2.612 3.161zm-28.904-.527a41.75 41.75 0 0 1-2.137-2.634l1.604-1.196a39.22 39.22 0 0 0 2.031 2.505l-1.498 1.325zM727.323 83.189l-1.672-1.097a19.739 19.739 0 0 1 2.658-3.255l1.402 1.426a17.813 17.813 0 0 0-2.388 2.926zm24.356-.069c-.289-.44-.585-.854-.886-1.245l1.582-1.223c.332.429.657.885.976 1.37l-1.672 1.098zm-2.118-2.683a16.398 16.398 0 0 0-2.885-2.411l1.094-1.675c1.16.758 2.25 1.668 3.238 2.706l-1.447 1.38zm-18.433-1.417l-1.23-1.577a18.129 18.129 0 0 1 3.612-2.191l.83 1.819a16.136 16.136 0 0 0-3.212 1.949zm13.915-1.922a14.228 14.228 0 0 0-3.53-1.199l.385-1.963c1.368.268 2.723.728 4.026 1.366l-.881 1.796zm-8.947-.706l-.613-1.904c2.11-.678 3.752-.772 4.205-.785l.056 1.999c-.388.011-1.791.093-3.648.69z"/><path class="st0" d="M752.71 82.942a.997.997 0 0 1-.787-.382c-3.72-4.728-4.906-10.095-5.859-14.407-1.272-5.76-2.127-8.8-6.111-9.171-3.984.37-4.839 3.41-6.111 9.171-.953 4.312-2.139 9.679-5.858 14.407a1 1 0 1 1-1.572-1.236c3.438-4.37 4.521-9.275 5.478-13.603 1.217-5.509 2.269-10.267 7.982-10.74a.91.91 0 0 1 .165 0c5.713.473 6.765 5.231 7.981 10.74.957 4.328 2.041 9.233 5.479 13.603a1 1 0 0 1-.787 1.618z"/><path class="st0" d="M727.323 83.12l-1.672-1.098c1.222-1.862 2.257-3.615 3.258-5.31 2.758-4.67 4.937-8.36 8.529-9.757a6.53 6.53 0 0 1 4.755.015c3.313 1.333 5.194 4.695 7.575 8.95 1.021 1.824 2.178 3.892 3.582 6.032l-1.672 1.098c-1.443-2.2-2.619-4.3-3.655-6.153-2.274-4.064-3.918-7.001-6.577-8.071a4.499 4.499 0 0 0-3.283-.006c-2.947 1.146-4.971 4.572-7.532 8.91-.965 1.635-2.06 3.488-3.308 5.39z"/><path class="st0" d="M724.945 81.734h61.458v2h-61.458z"/><g><path class="st0" d="M736.579 124.86h3.13c2.639 0 4.462 1.812 4.462 4.174v.025c0 2.361-1.823 4.197-4.462 4.197h-3.13v-8.396zm1.476 1.344v5.709h1.654c1.764 0 2.915-1.188 2.915-2.83v-.023c0-1.645-1.151-2.855-2.915-2.855h-1.654zM749.094 124.802h1.367l3.693 8.455h-1.559l-.852-2.027h-3.97l-.864 2.027h-1.511l3.696-8.455zm2.11 5.121l-1.451-3.359-1.438 3.359h2.889zM757.326 126.227h-2.662v-1.367h6.812v1.367h-2.662v7.029h-1.487v-7.029zM765.678 124.802h1.367l3.693 8.455h-1.559l-.852-2.027h-3.97l-.864 2.027h-1.511l3.696-8.455zm2.11 5.121l-1.451-3.359-1.438 3.359h2.889zM724.207 146.432l.889-1.055c.803.695 1.619 1.092 2.65 1.092.911 0 1.486-.432 1.486-1.057v-.023c0-.6-.336-.924-1.895-1.283-1.787-.432-2.795-.959-2.795-2.506v-.025c0-1.438 1.199-2.434 2.867-2.434 1.223 0 2.194.371 3.046 1.055l-.792 1.115c-.755-.562-1.511-.863-2.278-.863-.863 0-1.367.443-1.367.996v.023c0 .648.384.936 2.003 1.32 1.775.432 2.687 1.066 2.687 2.457v.025c0 1.57-1.235 2.506-2.998 2.506a5.161 5.161 0 0 1-3.503-1.343zM732.823 143.483v-.023c0-2.387 1.787-4.342 4.33-4.342 1.547 0 2.482.539 3.286 1.307l-.947 1.092c-.672-.625-1.392-1.043-2.352-1.043-1.595 0-2.77 1.318-2.77 2.961v.025c0 1.643 1.163 2.973 2.77 2.973 1.032 0 1.691-.406 2.411-1.078l.947.959c-.875.912-1.835 1.486-3.405 1.486-2.447 0-4.27-1.907-4.27-4.317zM742.879 139.261h1.476v8.396h-1.476v-8.396zM747.343 139.261h6.225v1.32h-4.749v2.182h4.209v1.32h-4.209v2.254h4.81v1.32h-6.285v-8.396zM756.127 139.261h1.367l4.498 5.805v-5.805h1.451v8.396h-1.235l-4.63-5.973v5.973h-1.451v-8.396zM765.979 143.483v-.023c0-2.387 1.787-4.342 4.33-4.342 1.547 0 2.482.539 3.286 1.307l-.947 1.092c-.672-.625-1.392-1.043-2.351-1.043-1.596 0-2.771 1.318-2.771 2.961v.025c0 1.643 1.163 2.973 2.771 2.973 1.031 0 1.691-.406 2.41-1.078l.947.959c-.875.912-1.834 1.486-3.405 1.486-2.447 0-4.27-1.907-4.27-4.317zM775.951 139.261h6.225v1.32h-4.75v2.182h4.21v1.32h-4.21v2.254h4.81v1.32h-6.284v-8.396z"/></g><g><path class="st0" d="M599.927 307.572l.888-1.055c.804.695 1.619 1.091 2.65 1.091.912 0 1.487-.432 1.487-1.056v-.023c0-.6-.336-.924-1.896-1.283-1.787-.432-2.794-.96-2.794-2.507v-.024c0-1.438 1.199-2.435 2.866-2.435 1.224 0 2.195.372 3.047 1.056l-.792 1.115c-.756-.563-1.511-.863-2.278-.863-.863 0-1.367.443-1.367.995v.024c0 .647.383.936 2.002 1.319 1.775.432 2.688 1.067 2.688 2.458v.024c0 1.571-1.236 2.507-2.999 2.507a5.17 5.17 0 0 1-3.502-1.343zM608.914 300.4h6.225v1.319h-4.749v2.183h4.21v1.319h-4.21v2.255h4.81v1.319h-6.285V300.4zM617.698 300.4h1.476v7.053h4.414v1.343h-5.89V300.4zM625.87 300.4h6.249v1.344h-4.773v2.29h4.233v1.344h-4.233v3.418h-1.476V300.4zM634.078 304.406h3.551v1.428h-3.551v-1.428zM639.562 307.572l.888-1.055c.804.695 1.618 1.091 2.65 1.091.911 0 1.487-.432 1.487-1.056v-.023c0-.6-.336-.924-1.896-1.283-1.787-.432-2.794-.96-2.794-2.507v-.024c0-1.438 1.199-2.435 2.866-2.435 1.224 0 2.194.372 3.046 1.056l-.791 1.115c-.756-.563-1.512-.863-2.279-.863-.863 0-1.367.443-1.367.995v.024c0 .647.384.936 2.003 1.319 1.775.432 2.687 1.067 2.687 2.458v.024c0 1.571-1.235 2.507-2.998 2.507a5.17 5.17 0 0 1-3.502-1.343zM648.55 300.4h6.225v1.319h-4.749v2.183h4.209v1.319h-4.209v2.255h4.81v1.319h-6.285V300.4zM657.334 300.4h3.742c1.055 0 1.883.312 2.422.84.444.455.696 1.079.696 1.811v.024c0 1.379-.827 2.207-1.991 2.542l2.268 3.179h-1.752l-2.062-2.927h-1.847v2.927h-1.476V300.4zm3.634 4.162c1.056 0 1.728-.552 1.728-1.403v-.024c0-.899-.648-1.391-1.739-1.391h-2.146v2.818h2.157zM665.795 300.4h1.631l2.53 6.452 2.519-6.452h1.596l-3.479 8.455h-1.307l-3.49-8.455zM676.342 300.4h1.476v8.396h-1.476V300.4zM680.434 304.622v-.023c0-2.387 1.787-4.342 4.33-4.342 1.547 0 2.482.539 3.286 1.307l-.947 1.092c-.672-.624-1.392-1.043-2.351-1.043-1.596 0-2.771 1.318-2.771 2.962v.024c0 1.643 1.163 2.974 2.771 2.974 1.031 0 1.691-.407 2.41-1.079l.947.96c-.875.911-1.834 1.486-3.405 1.486-2.447-.001-4.27-1.907-4.27-4.318zM690.406 300.4h6.225v1.319h-4.75v2.183h4.21v1.319h-4.21v2.255h4.81v1.319h-6.284V300.4zM613.959 314.741h1.367l3.693 8.455h-1.559l-.852-2.027h-3.97l-.864 2.027h-1.511l3.696-8.455zm2.11 5.121l-1.451-3.358-1.438 3.358h2.889zM621.208 314.801h1.368l4.497 5.805v-5.805h1.451v8.396h-1.235l-4.63-5.973v5.973h-1.451v-8.396zM634.406 314.741h1.367l3.694 8.455h-1.56l-.852-2.027h-3.969l-.864 2.027h-1.511l3.695-8.455zm2.112 5.121l-1.451-3.358-1.439 3.358h2.89zM641.656 314.801h1.476v7.053h4.413v1.343h-5.889v-8.396zM650.738 319.886l-3.334-5.085h1.752l2.338 3.706 2.375-3.706h1.691l-3.334 5.05v3.346h-1.488v-3.311zM659.667 316.168h-2.663v-1.367h6.812v1.367h-2.662v7.028h-1.487v-7.028zM666.208 314.801h1.476v8.396h-1.476v-8.396zM670.3 319.022v-.023c0-2.387 1.787-4.342 4.329-4.342 1.548 0 2.483.539 3.287 1.307l-.947 1.092c-.672-.624-1.392-1.043-2.352-1.043-1.595 0-2.77 1.318-2.77 2.962v.024c0 1.643 1.163 2.974 2.77 2.974 1.031 0 1.691-.407 2.411-1.079l.947.96c-.876.911-1.835 1.486-3.406 1.486-2.446 0-4.269-1.907-4.269-4.318zM679.708 321.972l.888-1.055c.804.695 1.619 1.091 2.65 1.091.912 0 1.487-.432 1.487-1.056v-.023c0-.6-.336-.924-1.896-1.283-1.787-.432-2.794-.96-2.794-2.507v-.024c0-1.438 1.199-2.435 2.866-2.435 1.224 0 2.195.372 3.047 1.056l-.792 1.115c-.756-.563-1.511-.863-2.278-.863-.863 0-1.367.443-1.367.995v.024c0 .647.383.936 2.002 1.319 1.775.432 2.688 1.067 2.688 2.458v.024c0 1.571-1.236 2.507-2.999 2.507a5.165 5.165 0 0 1-3.502-1.343z"/><g><path class="st0" d="M666.135 260.045c-7.403 0-13.427-6.023-13.427-13.427s6.023-13.427 13.427-13.427 13.427 6.023 13.427 13.427-6.024 13.427-13.427 13.427zm0-24.854c-6.301 0-11.427 5.126-11.427 11.427s5.126 11.427 11.427 11.427 11.427-5.126 11.427-11.427-5.126-11.427-11.427-11.427zM630.744 278.472h.005-.005m-.006 1l3.076.018-.025 4.271-3.076-.018.025-4.271m-.994-2.006a1 1 0 0 0-1 .994l-.037 6.271a1 1 0 0 0 .994 1.006l5.076.03h.006a1 1 0 0 0 1-.994l.037-6.271a1 1 0 0 0-.994-1.006l-5.076-.03h-.006zM654.006 275.567h.005-.005m-.006 1l3.076.018-.043 7.198-3.076-.018.043-7.198m-.994-2.005a1 1 0 0 0-1 .994l-.054 9.198a1 1 0 0 0 .994 1.006l5.076.03h.006a1 1 0 0 0 1-.994l.054-9.198a1 1 0 0 0-.994-1.006l-5.076-.03h-.006zM664.483 265.846h.005-.005m-.006.999l3.076.018-.1 16.942-3.076-.018.1-16.942m-.994-2.006a1 1 0 0 0-1 .994l-.112 18.942a1 1 0 0 0 .994 1.006l5.076.03h.006a1 1 0 0 0 1-.994l.112-18.942a1 1 0 0 0-.994-1.006l-5.076-.03h-.006zM642.451 272.198h.005-.005m-.006 1l3.076.018-.062 10.544-3.076-.018.062-10.544m-.995-2.006a1 1 0 0 0-1 .994l-.074 12.544a1 1 0 0 0 .994 1.006l5.076.03h.006a1 1 0 0 0 1-.994l.074-12.544a1 1 0 0 0-.994-1.006l-5.076-.03h-.006z"/><path transform="rotate(-40.049 638.123 265.305)" class="st0" d="M633.115 264.279h9.943v2h-9.943z"/><path transform="rotate(-56.969 649.345 264.418)" class="st0" d="M648.381 260.687h1.999v7.49h-1.999z"/><path transform="rotate(-49.954 659.59 261.97)" class="st0" d="M655.825 260.949h7.591v2h-7.591z"/><path class="st0" d="M632.235 268.525c.999 0 1.812.813 1.812 1.812s-.813 1.812-1.812 1.812-1.812-.813-1.812-1.812.813-1.812 1.812-1.812m0-2a3.812 3.812 0 1 0 0 7.625 3.812 3.812 0 0 0 0-7.625zM655.495 265.583c.999 0 1.812.813 1.812 1.812s-.813 1.812-1.812 1.812-1.812-.813-1.812-1.812.813-1.812 1.812-1.812m0-2a3.812 3.812 0 1 0 0 7.625 3.812 3.812 0 0 0 0-7.625zM643.933 258.817c.999 0 1.812.813 1.812 1.812s-.813 1.812-1.812 1.812-1.812-.813-1.812-1.812.813-1.812 1.812-1.812m0-2a3.812 3.812 0 1 0 0 7.625 3.812 3.812 0 0 0 0-7.625z"/><path class="st0" d="M672.29 289.671h-45.818a2.817 2.817 0 0 1-2.814-2.814v-45.818a2.817 2.817 0 0 1 2.814-2.814h29.045a1 1 0 1 1 0 2h-29.045a.815.815 0 0 0-.814.814v45.818c0 .449.365.814.814.814h45.818a.815.815 0 0 0 .814-.814v-30.04a1 1 0 1 1 2 0v30.04a2.817 2.817 0 0 1-2.814 2.814z"/><path class="st0" d="M652.521 248.597h-27.436a1 1 0 1 1 0-2h27.436a1 1 0 1 1 0 2zM630.116 244.819h-1.478a1 1 0 1 1 0-2h1.478a1 1 0 1 1 0 2zM634.88 244.819h-1.478a1 1 0 1 1 0-2h1.478a1 1 0 1 1 0 2zM639.644 244.819h-1.478a1 1 0 1 1 0-2h1.478a1 1 0 1 1 0 2zM666.135 239.442c.566 0 1.044.478 1.044 1.044v1.019c0 .566-.478 1.044-1.044 1.044a1.058 1.058 0 0 1-1.044-1.044v-1.019c0-.566.478-1.044 1.044-1.044m0-2a3.053 3.053 0 0 0-3.044 3.044v1.019a3.053 3.053 0 0 0 3.044 3.044 3.053 3.053 0 0 0 3.044-3.044v-1.019a3.054 3.054 0 0 0-3.044-3.044zM666.135 247.388c1.356 0 2.257.691 2.774 1.271.877.983 1.289 2.338 1.131 3.716l-.045.39h-7.721l-.045-.39c-.158-1.378.254-2.733 1.131-3.716.518-.579 1.419-1.271 2.775-1.271m0-2c-3.696 0-6.32 3.483-5.892 7.215l.248 2.162h11.288l.248-2.162c.428-3.732-2.196-7.215-5.892-7.215z"/></g></g><g><path class="st0" d="M740.911 247.122l1.031-.96c.6.708 1.271 1.104 2.207 1.104.827 0 1.451-.504 1.451-1.271v-.023c0-.828-.756-1.296-1.931-1.296h-.684l-.24-.923 2.267-2.411h-3.634v-1.283h5.553v1.104l-2.339 2.398c1.271.156 2.471.804 2.471 2.351v.024c0 1.547-1.188 2.662-2.938 2.662-1.463-.002-2.506-.613-3.214-1.476zM750.259 247.71c-.636-.636-1.02-1.512-1.02-3.203v-.023c0-2.566 1.224-4.569 3.598-4.569 1.092 0 1.835.348 2.566.936l-.791 1.139c-.588-.455-1.079-.731-1.823-.731-1.463 0-1.991 1.523-2.015 2.675.491-.516 1.115-.852 2.015-.852 1.619 0 2.927.96 2.927 2.639v.023c0 1.668-1.355 2.854-3.118 2.854-1.033-.002-1.776-.325-2.339-.888zm3.981-1.907v-.024c0-.839-.672-1.463-1.715-1.463s-1.703.672-1.703 1.476v.023c0 .852.695 1.499 1.739 1.499 1.043-.001 1.679-.648 1.679-1.511zM757.854 244.279v-.023c0-2.399 1.464-4.342 3.67-4.342 2.195 0 3.646 1.919 3.646 4.317v.024c0 2.398-1.464 4.341-3.67 4.341s-3.646-1.918-3.646-4.317zm5.793 0v-.023c0-1.655-.852-3.011-2.146-3.011-1.296 0-2.123 1.319-2.123 2.986v.024c0 1.654.84 3.01 2.146 3.01 1.308 0 2.123-1.342 2.123-2.986zM767.431 241.94v-.023c0-1.044.948-1.932 2.003-1.932 1.043 0 1.991.888 1.991 1.932v.023c0 1.044-.948 1.943-1.991 1.943-1.055.001-2.003-.899-2.003-1.943zm3.13 0v-.023c0-.612-.479-1.14-1.127-1.14a1.13 1.13 0 0 0-1.139 1.14v.023a1.14 1.14 0 0 0 1.139 1.151c.647.001 1.127-.538 1.127-1.151zM736.279 254.458h1.631l2.531 6.452 2.518-6.452h1.596l-3.479 8.455h-1.307l-3.49-8.455zM746.826 254.458h1.476v8.395h-1.476v-8.395zM751.291 254.458h6.225v1.319h-4.75v2.183h4.21v1.319h-4.21v2.255h4.81v1.319h-6.284v-8.395zM759.428 254.458h1.595l2.003 6.225 2.062-6.248h1.248l2.062 6.248 2.003-6.225h1.547l-2.914 8.455h-1.284l-2.062-6.032-2.062 6.032h-1.271l-2.927-8.455z"/><g><path class="st0" d="M780.494 202.227c-.142-6.845-2.941-13.224-7.882-17.963-4.941-4.739-11.417-7.274-18.276-7.128-12.494.26-23.504 9.771-24.541 21.203l-1.992-.182c1.146-12.624 12.782-22.736 26.492-23.021 7.385-.147 14.376 2.575 19.701 7.685 5.326 5.109 8.345 11.986 8.498 19.365l-2 .041z"/><path class="st0" d="M781.733 207.675l-2.27-3.656-2.271-3.657 4.302-.138 4.302-.138-2.031 3.794zM755.419 230.254c-6.632 0-12.972-2.354-18.037-6.738-5.582-4.828-8.948-11.542-9.479-18.903l1.994-.145c1.019 14.096 13.312 24.734 27.411 23.718 11.253-.814 20.541-8.733 23.112-19.708l1.947.457c-2.771 11.83-12.784 20.368-24.915 21.245-.68.049-1.358.074-2.033.074z"/><path class="st0" d="M729.003 200.096l2.049 3.784 2.049 3.785-4.302-.117-4.303-.118 2.254-3.667z"/><g><path class="st0" d="M755.004 203.652c-4.694 0-12.639-.886-12.639-4.206h2c.187.613 3.63 2.206 10.639 2.206 7.008 0 10.451-1.592 10.64-2.226l1.998.02c0 3.32-7.944 4.206-12.638 4.206zM755.004 209.512c-4.694 0-12.639-.886-12.639-4.207h2c.187.614 3.628 2.207 10.639 2.207 7.01 0 10.451-1.593 10.64-2.227l1.998.02c0 3.321-7.944 4.207-12.638 4.207z"/><path class="st3" d="M743.376 193.647v17.833"/><path class="st0" d="M742.376 193.647h2v17.833h-2z"/><g><path class="st3" d="M766.622 193.647v17.833"/><path class="st0" d="M765.622 193.647h2v17.833h-2z"/></g><path class="st4" d="M743.816 194.264h23.113v17.51h-23.113z"/><path class="st0" d="M755.004 197.794c-4.694 0-12.639-.886-12.639-4.206 0-3.321 7.944-4.207 12.639-4.207s12.638.886 12.638 4.207c0 3.32-7.944 4.206-12.638 4.206zm0-6.413c-7.011 0-10.452 1.593-10.641 2.227.188.594 3.632 2.187 10.641 2.187 6.938 0 10.381-1.561 10.633-2.206-.251-.648-3.694-2.208-10.633-2.208zM755.004 215.37c-4.694 0-12.639-.886-12.639-4.207h2c.187.614 3.628 2.207 10.639 2.207 7.01 0 10.451-1.593 10.64-2.227l1.998.02c0 3.321-7.944 4.207-12.638 4.207z"/></g></g></g><g><path class="st0" d="M703.18 364.991h-2.662v-1.367h6.812v1.367h-2.662v7.029h-1.487v-7.029zM709.637 363.624h3.742c1.055 0 1.883.312 2.422.84.444.455.696 1.08.696 1.811v.025c0 1.379-.827 2.207-1.991 2.541l2.268 3.18h-1.752l-2.062-2.928h-1.847v2.928h-1.476v-8.397zm3.634 4.162c1.056 0 1.728-.551 1.728-1.402v-.025c0-.898-.648-1.391-1.739-1.391h-2.146v2.818h2.157zM722.031 363.565h1.367l3.693 8.455h-1.559l-.852-2.027h-3.97l-.864 2.027h-1.511l3.696-8.455zm2.111 5.121l-1.451-3.359-1.438 3.359h2.889zM729.28 363.624h1.368l4.497 5.805v-5.805h1.451v8.396h-1.235l-4.63-5.973v5.973h-1.451v-8.396zM738.94 370.796l.888-1.055c.804.695 1.619 1.092 2.65 1.092.912 0 1.487-.432 1.487-1.057v-.023c0-.6-.336-.924-1.895-1.283-1.787-.432-2.795-.959-2.795-2.506v-.025c0-1.438 1.199-2.434 2.866-2.434 1.224 0 2.195.371 3.047 1.055l-.792 1.115c-.755-.562-1.511-.863-2.278-.863-.863 0-1.367.443-1.367.996v.023c0 .648.384.936 2.003 1.32 1.774.432 2.687 1.066 2.687 2.457v.025c0 1.57-1.235 2.506-2.998 2.506a5.173 5.173 0 0 1-3.503-1.343zM750.723 363.565h1.367l3.694 8.455h-1.56l-.852-2.027h-3.97l-.863 2.027h-1.511l3.695-8.455zm2.111 5.121l-1.451-3.359-1.439 3.359h2.89zM757.072 367.846v-.023c0-2.387 1.787-4.342 4.33-4.342 1.547 0 2.482.539 3.286 1.307l-.947 1.092c-.672-.625-1.392-1.043-2.351-1.043-1.596 0-2.771 1.318-2.771 2.961v.025c0 1.643 1.164 2.973 2.771 2.973 1.031 0 1.69-.406 2.41-1.078l.947.959c-.875.912-1.835 1.486-3.406 1.486-2.445 0-4.269-1.906-4.269-4.317zM769.107 364.991h-2.663v-1.367h6.812v1.367h-2.663v7.029h-1.486v-7.029zM775.648 363.624h1.475v8.396h-1.475v-8.396zM779.74 367.846v-.023c0-2.363 1.823-4.342 4.401-4.342 2.579 0 4.378 1.955 4.378 4.316v.025c0 2.361-1.823 4.34-4.401 4.34-2.579.001-4.378-1.952-4.378-4.316zm7.233 0v-.023c0-1.633-1.188-2.986-2.854-2.986s-2.831 1.33-2.831 2.961v.025c0 1.631 1.188 2.973 2.854 2.973s2.831-1.319 2.831-2.95zM791.056 363.624h1.368l4.497 5.805v-5.805h1.451v8.396h-1.235l-4.63-5.973v5.973h-1.451v-8.396zM804.254 363.565h1.367l3.694 8.455h-1.56l-.852-2.027h-3.969l-.864 2.027h-1.511l3.695-8.455zm2.111 5.121l-1.451-3.359-1.439 3.359h2.89zM811.504 363.624h1.476v7.053h4.413v1.344h-5.889v-8.397zM712.438 377.966h1.367l3.693 8.455h-1.559l-.852-2.027h-3.971l-.863 2.027h-1.511l3.696-8.455zm2.11 5.121l-1.451-3.359-1.439 3.359h2.89zM719.687 378.024h3.311c1.967 0 3.19 1.115 3.19 2.807v.023c0 1.885-1.512 2.867-3.358 2.867h-1.667v2.699h-1.476v-8.396zm3.19 4.365c1.115 0 1.811-.623 1.811-1.498v-.023c0-.984-.707-1.5-1.811-1.5h-1.715v3.021h1.715zM728.446 378.024h3.311c1.967 0 3.19 1.115 3.19 2.807v.023c0 1.885-1.512 2.867-3.358 2.867h-1.667v2.699h-1.476v-8.396zm3.191 4.365c1.115 0 1.811-.623 1.811-1.498v-.023c0-.984-.707-1.5-1.811-1.5h-1.715v3.021h1.715zM737.207 378.024h1.475v7.053h4.414v1.344h-5.889v-8.397zM745.463 378.024h1.475v8.396h-1.475v-8.396zM749.555 382.247v-.023c0-2.387 1.787-4.342 4.33-4.342 1.547 0 2.482.539 3.285 1.307l-.947 1.092c-.672-.625-1.391-1.043-2.351-1.043-1.595 0-2.771 1.318-2.771 2.961v.025c0 1.643 1.164 2.973 2.771 2.973 1.031 0 1.691-.406 2.411-1.078l.947.959c-.876.912-1.835 1.486-3.406 1.486-2.447-.001-4.269-1.907-4.269-4.317zM762.5 377.966h1.367l3.694 8.455h-1.559l-.852-2.027h-3.97l-.863 2.027h-1.512l3.695-8.455zm2.111 5.121l-1.451-3.359-1.439 3.359h2.89zM770.733 379.391h-2.663v-1.367h6.812v1.367h-2.662v7.029h-1.487v-7.029zM777.273 378.024h1.476v8.396h-1.476v-8.396zM781.366 382.247v-.023c0-2.363 1.823-4.342 4.401-4.342s4.378 1.955 4.378 4.316v.025c0 2.361-1.823 4.34-4.401 4.34-2.579 0-4.378-1.953-4.378-4.316zm7.232 0v-.023c0-1.633-1.188-2.986-2.854-2.986-1.668 0-2.831 1.33-2.831 2.961v.025c0 1.631 1.188 2.973 2.854 2.973s2.831-1.319 2.831-2.95zM792.682 378.024h1.367l4.498 5.805v-5.805h1.451v8.396h-1.235l-4.63-5.973v5.973h-1.451v-8.396zM802.342 385.196l.888-1.055c.804.695 1.619 1.092 2.65 1.092.912 0 1.487-.432 1.487-1.057v-.023c0-.6-.336-.924-1.895-1.283-1.787-.432-2.795-.959-2.795-2.506v-.025c0-1.438 1.199-2.434 2.867-2.434 1.223 0 2.194.371 3.046 1.055l-.792 1.115c-.756-.562-1.511-.863-2.278-.863-.864 0-1.367.443-1.367.996v.023c0 .648.384.936 2.003 1.32 1.775.432 2.687 1.066 2.687 2.457v.025c0 1.57-1.235 2.506-2.999 2.506a5.165 5.165 0 0 1-3.502-1.343z"/><g><path class="st0" d="M735.875 342.568c-.799 0-7.8-.076-7.8-2.728h1.6c.24.344 2.542 1.128 6.2 1.128s5.96-.784 6.22-1.223l1.58.095c0 2.652-7.001 2.728-7.8 2.728zM735.875 346.093c-.799 0-7.8-.076-7.8-2.729h1.6c.24.345 2.541 1.129 6.2 1.129s5.96-.784 6.22-1.224l1.58.095c0 2.652-7.001 2.729-7.8 2.729zM735.875 349.616c-.799 0-7.8-.076-7.8-2.729h1.6c.24.345 2.541 1.129 6.2 1.129s5.96-.784 6.22-1.224l1.58.095c0 2.653-7.001 2.729-7.8 2.729z"/><path class="st0" d="M728.081 336.352h1.6v10.726h-1.6zM742.063 336.352h1.6v10.726h-1.6zM767.431 336.352h1.6v10.726h-1.6z"/><path class="st0" d="M775.225 342.568c-.799 0-7.8-.076-7.8-2.728h1.6c.24.344 2.542 1.128 6.2 1.128s5.96-.784 6.22-1.223l1.58.095c-.001 2.652-7.002 2.728-7.8 2.728zM775.225 346.093c-.799 0-7.8-.076-7.8-2.729h1.6c.24.345 2.541 1.129 6.2 1.129s5.96-.784 6.22-1.224l1.58.095c-.001 2.652-7.002 2.729-7.8 2.729zM775.225 349.616c-.799 0-7.8-.076-7.8-2.729h1.6c.24.345 2.541 1.129 6.2 1.129s5.96-.784 6.22-1.224l1.58.095c-.001 2.653-7.002 2.729-7.8 2.729z"/><path class="st0" d="M781.413 336.352h1.6v10.726h-1.6z"/><g><path class="st0" d="M755.55 342.568c-.799 0-7.8-.076-7.8-2.728h1.6c.24.344 2.542 1.128 6.2 1.128s5.96-.784 6.22-1.223l1.58.095c0 2.652-7.001 2.728-7.8 2.728zM755.55 346.093c-.799 0-7.8-.076-7.8-2.729h1.6c.24.345 2.541 1.129 6.2 1.129s5.96-.784 6.22-1.224l1.58.095c0 2.652-7.001 2.729-7.8 2.729zM755.55 349.616c-.799 0-7.8-.076-7.8-2.729h1.6c.24.345 2.541 1.129 6.2 1.129s5.96-.784 6.22-1.224l1.58.095c0 2.653-7.001 2.729-7.8 2.729z"/><path class="st0" d="M747.756 336.352h1.6v10.726h-1.6zM761.738 336.352h1.6v10.726h-1.6z"/></g><path class="st0" d="M780.918 293.128c.11 0 .2.09.2.2v33.193a.2.2 0 0 1-.2.2h-50.487a.2.2 0 0 1-.2-.2v-33.193c0-.11.09-.2.2-.2h50.487m0-1.8h-50.487a2 2 0 0 0-2 2v33.193a2 2 0 0 0 2 2h50.487a2 2 0 0 0 2-2v-33.193a2 2 0 0 0-2-2z"/><path class="st0" d="M729.732 299.477h52.25v1.801h-52.25zM735.17 297.294h-1.597a1 1 0 1 1 0-2h1.597a1 1 0 1 1 0 2zM740.317 297.294h-1.597a1 1 0 1 1 0-2h1.597a1 1 0 1 1 0 2zM745.465 297.294h-1.597a1 1 0 1 1 0-2h1.597a1 1 0 1 1 0 2z"/><g><path class="st0" d="M764.009 306.162l-.432 3.82-.432 3.821 3.525-1.536 3.525-1.537-3.093-2.284z"/><path transform="rotate(-20.793 770.433 322.455)" class="st0" d="M769.533 309.319h1.6v26.238h-1.6z"/><path class="st0" d="M747.026 306.162l.432 3.82.432 3.821-3.525-1.536-3.525-1.537 3.093-2.284z"/><path transform="rotate(-69.109 740.673 322.344)" class="st0" d="M727.681 321.555h26.071v1.599h-26.071z"/><g><path class="st0" d="M755.667 307.622l-1.981 3.296-1.981 3.296 3.845.067 3.844.068-1.864-3.363z"/><path transform="matrix(.0085 -1 1 .0085 425.721 1075.696)" class="st0" d="M743.867 322.36h22.917v1.6h-22.917z"/></g></g></g><path class="st0" d="M775.225 339.045c-.799 0-7.8-.076-7.8-2.729s7.001-2.729 7.8-2.729 7.8.076 7.8 2.729-7.002 2.729-7.8 2.729zm-6.138-2.729c.5.448 2.729 1.129 6.138 1.129s5.638-.681 6.138-1.129c-.5-.448-2.73-1.129-6.138-1.129s-5.638.681-6.138 1.129zM755.55 339.045c-.799 0-7.8-.076-7.8-2.729s7.001-2.729 7.8-2.729 7.8.076 7.8 2.729-7.001 2.729-7.8 2.729zm-6.138-2.729c.5.448 2.729 1.129 6.138 1.129s5.638-.681 6.138-1.129c-.5-.448-2.73-1.129-6.138-1.129s-5.638.681-6.138 1.129zM735.875 339.045c-.799 0-7.8-.076-7.8-2.729s7.001-2.729 7.8-2.729 7.8.076 7.8 2.729-7.001 2.729-7.8 2.729zm-6.138-2.729c.5.448 2.729 1.129 6.138 1.129s5.638-.681 6.138-1.129c-.5-.448-2.73-1.129-6.138-1.129s-5.638.681-6.138 1.129z"/><path class="st4" d="M729.732 292.369h52.25v8.008h-52.25z"/></g><g><path class="st0" d="M617.539 180.038h3.766c.959 0 1.715.264 2.195.744.371.371.563.827.563 1.391v.024c0 1.007-.576 1.547-1.199 1.871.983.335 1.667.899 1.667 2.038v.024c0 1.499-1.235 2.303-3.106 2.303h-3.886v-8.395zm5.049 2.375c0-.66-.527-1.067-1.475-1.067h-2.123v2.23h2.015c.947 0 1.583-.372 1.583-1.14v-.023zm-1.259 2.41h-2.339v2.303h2.446c1.008 0 1.619-.396 1.619-1.151v-.023c.001-.709-.563-1.129-1.726-1.129zM626.814 184.871v-4.833h1.476v4.773c0 1.56.804 2.387 2.122 2.387 1.308 0 2.111-.779 2.111-2.327v-4.833h1.476v4.762c0 2.507-1.415 3.766-3.61 3.766-2.183-.001-3.575-1.26-3.575-3.695zM636.211 187.21l.888-1.055c.804.695 1.618 1.091 2.65 1.091.911 0 1.487-.432 1.487-1.056v-.023c0-.6-.336-.924-1.896-1.283-1.787-.432-2.794-.96-2.794-2.507v-.024c0-1.438 1.199-2.435 2.866-2.435 1.224 0 2.194.372 3.046 1.056l-.791 1.115c-.756-.563-1.512-.863-2.279-.863-.863 0-1.367.443-1.367.995v.024c0 .647.384.936 2.003 1.319 1.775.432 2.687 1.067 2.687 2.458v.024c0 1.571-1.235 2.507-2.998 2.507a5.17 5.17 0 0 1-3.502-1.343zM645.282 180.038h1.476v8.396h-1.476v-8.396zM649.746 180.038h1.367l4.498 5.805v-5.805h1.451v8.396h-1.235l-4.63-5.973v5.973h-1.451v-8.396zM659.971 180.038h6.225v1.319h-4.75v2.183h4.21v1.319h-4.21v2.255h4.81v1.319h-6.284v-8.395zM668.19 187.21l.888-1.055c.804.695 1.619 1.091 2.65 1.091.912 0 1.487-.432 1.487-1.056v-.023c0-.6-.336-.924-1.896-1.283-1.787-.432-2.794-.96-2.794-2.507v-.024c0-1.438 1.199-2.435 2.866-2.435 1.224 0 2.195.372 3.047 1.056l-.792 1.115c-.756-.563-1.511-.863-2.278-.863-.863 0-1.367.443-1.367.995v.024c0 .647.383.936 2.002 1.319 1.775.432 2.688 1.067 2.688 2.458v.024c0 1.571-1.236 2.507-2.999 2.507a5.17 5.17 0 0 1-3.502-1.343zM676.494 187.21l.889-1.055c.803.695 1.619 1.091 2.65 1.091.911 0 1.486-.432 1.486-1.056v-.023c0-.6-.336-.924-1.895-1.283-1.787-.432-2.795-.96-2.795-2.507v-.024c0-1.438 1.199-2.435 2.867-2.435 1.223 0 2.194.372 3.046 1.056l-.792 1.115c-.755-.563-1.511-.863-2.278-.863-.863 0-1.367.443-1.367.995v.024c0 .647.384.936 2.003 1.319 1.775.432 2.687 1.067 2.687 2.458v.024c0 1.571-1.235 2.507-2.998 2.507a5.17 5.17 0 0 1-3.503-1.343zM601.339 194.438h1.476v8.396h-1.476v-8.396zM605.803 194.438h1.367l4.498 5.805v-5.805h1.451v8.396h-1.235l-4.63-5.973v5.973h-1.451v-8.396zM618.09 195.805h-2.663v-1.367h6.812v1.367h-2.663v7.028h-1.486v-7.028zM624.547 194.438h6.225v1.319h-4.75v2.183h4.21v1.319h-4.21v2.255h4.81v1.319h-6.284v-8.395zM633.33 194.438h1.476v7.053h4.414v1.343h-5.89v-8.396zM641.502 194.438h1.476v7.053h4.414v1.343h-5.89v-8.396zM649.758 194.438h1.476v8.396h-1.476v-8.396zM653.851 198.66v-.023c0-2.352 1.799-4.342 4.329-4.342 1.464 0 2.363.407 3.227 1.139l-.936 1.116c-.647-.552-1.283-.899-2.351-.899-1.547 0-2.723 1.354-2.723 2.962v.024c0 1.727 1.14 2.998 2.854 2.998.791 0 1.512-.252 2.027-.636v-1.571h-2.147v-1.283h3.574v3.526a5.355 5.355 0 0 1-3.502 1.307c-2.626-.001-4.352-1.872-4.352-4.318zM664.374 194.438h6.225v1.319h-4.749v2.183h4.209v1.319h-4.209v2.255h4.809v1.319h-6.284v-8.395zM673.158 194.438h1.367l4.497 5.805v-5.805h1.452v8.396h-1.236l-4.629-5.973v5.973h-1.451v-8.396zM683.01 198.66v-.023c0-2.387 1.787-4.342 4.33-4.342 1.547 0 2.482.539 3.286 1.307l-.947 1.092c-.672-.624-1.392-1.043-2.351-1.043-1.596 0-2.771 1.318-2.771 2.962v.024c0 1.643 1.163 2.974 2.771 2.974 1.031 0 1.691-.407 2.41-1.079l.947.96c-.875.911-1.834 1.486-3.405 1.486-2.447-.001-4.27-1.907-4.27-4.318zM692.982 194.438h6.225v1.319h-4.75v2.183h4.21v1.319h-4.21v2.255h4.81v1.319h-6.284v-8.395z"/><g><path class="st0" d="M679.652 158.203h-55.938a1.992 1.992 0 0 1-1.99-1.99v-36.577c0-1.098.893-1.99 1.99-1.99h16.249a1 1 0 1 1 0 2h-16.249l.01 36.567 55.928-.01-.01-36.567-11.901.01a1 1 0 1 1 0-2h11.911c1.098 0 1.99.893 1.99 1.99v36.577a1.991 1.991 0 0 1-1.99 1.99z"/><path class="st0" d="M680.237 153.322h-56.953a1 1 0 1 1 0-2h56.953a1 1 0 1 1 0 2zM659.507 165.892H643.86a1 1 0 0 1-.636-1.77c.101-.086 2.577-2.234 2.736-6.855.019-.552.516-1.003 1.033-.965a1 1 0 0 1 .965 1.033c-.104 3.028-1.08 5.194-1.97 6.558h11.572c-.858-1.406-1.899-3.634-2.147-6.437a1 1 0 1 1 1.992-.176c.367 4.155 2.818 6.913 2.843 6.94a1.002 1.002 0 0 1-.741 1.672zM668.128 136.842h.005-.005m-.796.674l6.798 8.03-1.78 1.507-6.798-8.03 1.78-1.507m.121-2.426a.953.953 0 0 0-.617.225l-3.373 2.855a.96.96 0 0 0-.112 1.349l8.146 9.622a.956.956 0 0 0 1.349.113l3.373-2.855a.96.96 0 0 0 .112-1.349l-8.146-9.622a.956.956 0 0 0-.732-.338z"/><path class="st0" d="M664.08 133.647l-1.808 1.53 2.662 3.144 1.807-1.531-2.661-3.143z"/></g><path class="st0" d="M653.914 110.017a13.45 13.45 0 0 1 10.284 4.765c4.797 5.666 4.09 14.178-1.577 18.975a13.467 13.467 0 0 1-18.976-1.577c-4.797-5.666-4.09-14.178 1.576-18.975a13.476 13.476 0 0 1 8.693-3.188m.012 23.867c2.456 0 4.841-.875 6.718-2.463 4.378-3.706 4.924-10.284 1.218-14.662a10.384 10.384 0 0 0-7.944-3.681c-2.456 0-4.841.875-6.718 2.463-4.378 3.706-4.925 10.284-1.218 14.662a10.39 10.39 0 0 0 7.944 3.681m-.012-25.867a15.4 15.4 0 0 0-9.984 3.662c-6.518 5.518-7.329 15.276-1.811 21.794a15.43 15.43 0 0 0 11.81 5.472 15.4 15.4 0 0 0 9.984-3.662c6.518-5.518 7.329-15.276 1.811-21.794a15.429 15.429 0 0 0-11.81-5.472zm.012 23.867a8.403 8.403 0 1 1 6.409-13.833 8.403 8.403 0 0 1-.984 11.843 8.365 8.365 0 0 1-5.425 1.99z"/></g></g><linearGradient id="SVGID_1_" gradientUnits="userSpaceOnUse" x1="-6056.196" y1="100.323" x2="-5900.538" y2="100.323" gradientTransform="matrix(0 -1 -1 0 548.171 -5755.018)"><stop offset="0" stop-color="#17c9c0"/><stop offset=".168" stop-color="#00a9d7"/><stop offset=".564" stop-color="#1cd0bb"/><stop offset="1" stop-color="#0fbec8"/></linearGradient><path d="M431.919 301.178v-6.951c6.033 0 10.942-4.909 10.942-10.943v-39.921a17.95 17.95 0 0 1 3.958-11.223l.095-.113 7.615-8.678-7.71-8.792a17.949 17.949 0 0 1-3.958-11.223v-39.921c0-6.033-4.909-10.942-10.942-10.942v-6.951c9.867 0 17.894 8.026 17.894 17.894v39.921c0 2.464.845 4.879 2.378 6.81l11.587 13.205-11.587 13.204a10.988 10.988 0 0 0-2.378 6.81v39.921c-.001 9.866-8.027 17.893-17.894 17.893z" fill="url(#SVGID_1_)"/><linearGradient id="SVGID_2_" gradientUnits="userSpaceOnUse" x1="-6176.675" y1="-12.751" x2="-5772.274" y2="-12.751" gradientTransform="matrix(0 -1 -1 0 548.171 -5755.018)"><stop offset="0" stop-color="#17c9c0"/><stop offset=".168" stop-color="#00a9d7"/><stop offset=".564" stop-color="#1cd0bb"/><stop offset="1" stop-color="#0fbec8"/></linearGradient><path d="M544.992 421.658v-6.951c6.034 0 10.943-4.909 10.943-10.943v-160.4c0-4.068 1.405-8.054 3.957-11.223l.095-.113 7.615-8.678-7.71-8.792a17.951 17.951 0 0 1-3.957-11.223V35.152c0-6.034-4.909-10.942-10.943-10.942v-6.952c9.867 0 17.895 8.027 17.895 17.895v168.183c0 2.465.844 4.881 2.378 6.81l11.586 13.205-11.587 13.204a10.985 10.985 0 0 0-2.377 6.81v160.4c0 9.866-8.028 17.893-17.895 17.893z" fill="url(#SVGID_2_)"/></g></svg>